<svg width="258" height="287" viewBox="0 0 258 287" fill="#181818" xmlns="http://www.w3.org/2000/svg">
  <path d="M7.96497 74.8952C8.23497 75.1652 46.485 81.4652 52.335 82.0202C52.4374 82.0224 52.5372 81.9871 52.6154 81.9209C52.6936 81.8547 52.745 81.7622 52.7597 81.6607C52.7745 81.5593 52.7516 81.456 52.6955 81.3703C52.6394 81.2845 52.5538 81.2223 52.455 81.1952C45.69 79.6952 9.40497 74.5502 8.09997 74.3702C8.0545 74.36 8.00699 74.3642 7.96399 74.3821C7.921 74.4001 7.88465 74.431 7.85995 74.4705C7.83525 74.51 7.82343 74.5562 7.82612 74.6027C7.82881 74.6493 7.84588 74.6938 7.87497 74.7302C7.88286 74.7946 7.91505 74.8537 7.96497 74.8952ZM248.175 285.885C245.775 285.135 1.12497 216.585 0.749967 216.465C0.715492 216.456 0.679574 216.454 0.644286 216.459C0.608998 216.464 0.575037 216.476 0.544361 216.494C0.513684 216.512 0.486898 216.536 0.465548 216.565C0.444199 216.593 0.428707 216.626 0.419966 216.66C0.299966 217.635 242.955 285.06 247.92 286.71C248.024 286.729 248.132 286.709 248.223 286.654C248.314 286.598 248.381 286.512 248.412 286.41C248.444 286.309 248.437 286.2 248.393 286.103C248.349 286.006 248.272 285.929 248.175 285.885ZM33.39 243.6C31.965 243.72 29.835 243.42 30.03 242.1C30.0946 241.763 30.2443 241.449 30.4649 241.186C30.6854 240.924 30.9694 240.722 31.29 240.6C32.5321 240.426 33.7965 240.68 34.875 241.32C35.745 241.71 36.375 241.935 36.975 242.16C38.76 242.94 37.845 243.45 35.91 243.66L35.115 243.78C34.62 243.78 34.56 244.53 35.115 244.68C36.0334 244.916 37.0023 244.864 37.89 244.53C39.765 243.9 39.735 242.31 38.16 241.41C37.1938 240.893 36.1911 240.447 35.16 240.075C33.435 239.355 30.945 238.575 29.475 240.375C29.1256 240.785 28.9074 241.289 28.8486 241.824C28.7897 242.359 28.893 242.9 29.145 243.375C29.955 244.875 31.83 244.98 33.495 244.875C34.215 244.77 34.11 243.555 33.39 243.6ZM74.82 255.585C74.5831 255.427 74.3085 255.334 74.0241 255.315C73.7396 255.297 73.4554 255.354 73.2 255.48C73.2 255.48 65.985 258.48 65.535 260.205C65.5036 260.305 65.4982 260.411 65.5192 260.513C65.5402 260.616 65.5869 260.711 65.655 260.79C65.8073 260.945 65.9937 261.063 66.1995 261.133C66.4052 261.203 66.6245 261.225 66.84 261.195C67.4093 261.233 67.9806 261.233 68.55 261.195C68.6813 261.195 68.8072 261.143 68.9 261.05C68.9928 260.957 69.045 260.831 69.045 260.7C69.045 260.569 68.9928 260.443 68.9 260.35C68.8072 260.257 68.6813 260.205 68.55 260.205C67.365 260.205 68.025 260.205 67.05 260.115C67.4561 259.778 67.9049 259.495 68.385 259.275C70.1413 258.164 72.0059 257.235 73.95 256.5C74.88 256.305 75.75 258.495 75.54 259.245C75.33 259.995 74.85 259.92 73.785 260.01C72.7049 260.055 71.6283 260.16 70.56 260.325C70.035 260.325 70.05 261.24 70.56 261.24C72.1381 261.514 73.7576 261.432 75.3 261C75.7477 260.892 76.1432 260.63 76.4173 260.26C76.6915 259.89 76.8269 259.435 76.8 258.975C76.566 257.645 75.8636 256.442 74.82 255.585ZM128.4 263.04C127.019 263.199 125.654 263.475 124.32 263.865C122.37 264.39 120.465 265.95 121.155 267.96C121.322 268.372 121.599 268.731 121.956 268.995C122.314 269.26 122.737 269.421 123.18 269.46C124.05 269.46 125.1 268.785 123.18 268.215C121.68 267.75 121.815 265.635 124.68 264.93C126.126 264.553 127.593 264.268 129.075 264.075C130.395 263.91 132.285 263.565 133.365 264.21C133.549 264.291 133.707 264.42 133.824 264.584C133.94 264.748 134.009 264.94 134.025 265.14C133.994 265.614 133.859 266.076 133.631 266.493C133.403 266.91 133.087 267.273 132.705 267.555C131.914 268.127 131.018 268.535 130.067 268.757C129.117 268.978 128.132 269.008 127.17 268.845C127.114 268.824 127.055 268.815 126.995 268.818C126.935 268.822 126.877 268.838 126.825 268.866C126.772 268.894 126.725 268.933 126.689 268.98C126.652 269.027 126.626 269.081 126.612 269.139C126.598 269.197 126.597 269.258 126.608 269.316C126.619 269.375 126.643 269.431 126.677 269.479C126.711 269.528 126.756 269.569 126.807 269.599C126.858 269.63 126.916 269.649 126.975 269.655C128.04 269.95 129.156 270.007 130.245 269.82C134.46 269.175 136.335 265.515 134.745 263.7C133.5 262.38 130.815 262.725 128.4 263.04ZM122.31 271.32C120.98 270.556 119.436 270.25 117.915 270.45C116.805 270.6 115.17 271.5 115.17 272.91C115.231 273.474 115.509 273.992 115.946 274.354C116.384 274.715 116.945 274.891 117.51 274.845C118.455 274.845 119.01 274.335 119.01 274.065C119.01 273.795 118.47 273.69 118.065 273.675C117.12 273.675 116.34 273.675 116.25 272.955C116.16 272.235 117.345 271.65 118.02 271.455C119.156 271.339 120.303 271.536 121.335 272.025C121.905 272.265 122.595 272.565 122.34 273.06C122.085 273.555 120.75 273.645 120.135 273.72C119.52 273.795 119.685 274.56 120.225 274.56C121.35 274.56 122.61 274.68 123.225 273.69C123.84 272.7 123.3 271.77 122.31 271.32ZM39.855 269.73C39.9065 269.692 39.9492 269.642 39.9801 269.586C40.0109 269.529 40.0293 269.466 40.0338 269.402C40.0384 269.338 40.0291 269.273 40.0066 269.213C39.984 269.152 39.9488 269.098 39.9032 269.052C39.8576 269.006 39.8027 268.971 39.7423 268.949C39.6819 268.926 39.6174 268.917 39.5531 268.921C39.4888 268.926 39.4262 268.944 39.3696 268.975C39.313 269.006 39.2637 269.049 39.225 269.1C36.225 272.01 35.34 271.65 33.795 272.91C33.7118 272.97 33.6543 273.058 33.6338 273.159C33.6133 273.259 33.6315 273.363 33.6846 273.45C33.7378 273.537 33.822 273.601 33.9204 273.629C34.0187 273.657 34.124 273.647 34.215 273.6C36.555 273.255 38.745 271.035 39.855 269.73ZM41.055 269.61C40.2218 270.643 39.2046 271.513 38.055 272.175C37.4715 272.424 36.9569 272.81 36.555 273.3C36.36 273.495 36.435 273.93 37.02 273.93C37.5039 273.869 37.9665 273.694 38.37 273.42C39.7758 272.627 40.9735 271.511 41.865 270.165C42.135 269.7 41.4 269.13 41.055 269.61ZM43.125 270.825C42.9782 271.116 42.7969 271.388 42.585 271.635C41.82 272.4 41.715 272.61 41.715 272.835C41.7062 272.891 41.7098 272.948 41.7255 273.003C41.7411 273.057 41.7685 273.108 41.8056 273.151C41.8427 273.193 41.8887 273.228 41.9404 273.251C41.9921 273.274 42.0483 273.286 42.105 273.285C42.4413 273.218 42.7557 273.069 43.02 272.85C43.5235 272.385 43.896 271.795 44.1 271.14C44.1 270.525 43.29 270.375 43.125 270.825ZM21.87 264.69C21.03 266.865 17.685 268.68 15.69 269.955C13.971 270.861 12.3435 271.931 10.83 273.15C10.485 273.495 10.83 273.99 11.205 273.825C12.6302 273.162 13.9997 272.384 15.3 271.5C19.185 269.19 21.615 268.02 22.53 264.885C22.8 264.465 22.08 264.15 21.87 264.69Z"/>
  <path d="M19.6649 269.04C18.383 270.374 16.8875 271.484 15.2399 272.325C14.8649 272.52 15.0749 273.06 15.5099 273.06C17.6549 272.895 19.6949 270.615 20.4899 269.625C20.7899 269.175 20.0999 268.605 19.6649 269.04ZM23.9999 267.39C23.1865 268.488 22.2888 269.522 21.3149 270.48C21.0449 270.825 20.9249 271.095 21.1049 271.275C21.5699 271.86 23.0399 270.39 23.6249 269.775C24.1309 269.192 24.5687 268.553 24.9299 267.87C25.3949 267.075 24.5399 266.595 23.9999 267.39ZM80.8499 272.64C79.6338 273.997 78.1926 275.134 76.5899 276C76.2299 276.18 76.3499 276.735 76.8749 276.735C77.8325 276.487 78.7274 276.041 79.5024 275.426C80.2773 274.811 80.9152 274.041 81.3749 273.165C81.7799 272.73 81.0899 272.235 80.8499 272.64ZM84.1049 276.21C83.312 276.662 82.568 277.195 81.8849 277.8C81.3899 278.28 81.3899 278.88 82.2 278.64C83.0947 278.293 83.9183 277.784 84.6299 277.14C84.7318 277.061 84.8017 276.947 84.827 276.82C84.8523 276.694 84.8312 276.562 84.7676 276.449C84.7041 276.337 84.6023 276.251 84.4807 276.207C84.359 276.163 84.2257 276.164 84.1049 276.21ZM57.5099 250.89C57.6899 250.47 56.9849 250.14 56.7899 250.56C55.5883 252.659 54.0241 254.528 52.1699 256.08C51.9749 256.245 51.5249 256.65 51.8399 257.07C52.1549 257.49 52.7849 257.205 53.0849 256.89C53.9583 256.242 54.7315 255.469 55.3799 254.595C56.2933 253.489 57.0135 252.236 57.5099 250.89ZM57.8699 252.705C57.7527 252.646 57.618 252.632 57.491 252.665C57.364 252.698 57.2534 252.777 57.1799 252.885C56.8766 253.431 56.5034 253.936 56.0699 254.385C55.7699 254.685 55.4399 255.03 55.4399 255.39C55.4287 255.481 55.4496 255.572 55.4989 255.649C55.5482 255.726 55.6229 255.783 55.7099 255.81C56.0099 255.9 56.6249 255.495 57.2099 254.73C57.4909 254.298 57.7415 253.847 57.9599 253.38C58.0053 253.333 58.0395 253.276 58.0599 253.214C58.0803 253.152 58.0864 253.086 58.0778 253.021C58.0691 252.956 58.0459 252.894 58.01 252.839C57.974 252.785 57.9261 252.739 57.8699 252.705ZM11.7299 246.915C12.0979 246.525 12.4434 246.114 12.7649 245.685C12.2249 246.465 11.9549 246.915 12.1049 247.185C12.1421 247.25 12.1972 247.303 12.2637 247.338C12.3302 247.373 12.4053 247.387 12.4799 247.38C13.6649 247.29 14.3249 245.31 14.5349 244.695C14.5722 244.603 14.5805 244.501 14.5588 244.403C14.5371 244.306 14.4864 244.217 14.4133 244.149C14.3403 244.081 14.2484 244.036 14.1496 244.021C14.0508 244.006 13.9499 244.022 13.8599 244.065C14.2326 243.445 14.5585 242.799 14.8349 242.13C14.8664 242.074 14.8862 242.012 14.893 241.947C14.8999 241.883 14.8938 241.818 14.875 241.757C14.8561 241.695 14.825 241.637 14.7835 241.588C14.742 241.538 14.691 241.498 14.6334 241.469C14.5759 241.439 14.513 241.422 14.4486 241.417C14.3841 241.413 14.3195 241.422 14.2585 241.443C14.1974 241.464 14.1413 241.497 14.0935 241.541C14.0456 241.584 14.007 241.637 13.9799 241.695C13.0775 243.312 11.9956 244.821 10.7549 246.195C10.4399 246.525 10.0649 246.9 10.0649 247.335C10.0649 247.77 10.5749 248.175 11.7299 246.915ZM28.0049 241.05C27.4484 240.992 26.9239 240.761 26.5049 240.39C26.3266 240.261 26.1883 240.084 26.106 239.88C26.0238 239.675 26.0009 239.452 26.0399 239.235C26.1899 238.665 26.7749 238.305 27.8849 238.08C29.7749 237.675 33.5249 237.57 33.8849 239.475C33.932 239.593 34.021 239.688 34.1347 239.744C34.2483 239.799 34.3785 239.81 34.4999 239.775C34.5988 239.75 34.684 239.688 34.7372 239.601C34.7905 239.514 34.8076 239.41 34.7849 239.31C34.6049 236.97 31.7849 236.625 30.2849 236.625C26.1899 236.625 25.1849 238.125 24.9449 238.815C24.3449 240.435 26.2499 242.28 27.9449 241.815C28.4999 241.86 28.3949 241.095 28.0049 241.05ZM100.5 256.23C100.31 256.416 100.161 256.639 100.064 256.886C99.9667 257.133 99.923 257.398 99.9358 257.663C99.9485 257.928 100.017 258.188 100.138 258.424C100.259 258.661 100.428 258.869 100.635 259.035C100.989 259.334 101.408 259.546 101.858 259.655C102.309 259.764 102.778 259.768 103.23 259.665C105.66 259.41 104.955 258.165 103.365 258.525C101.775 258.885 100.8 257.775 101.235 257.19C101.863 256.843 102.565 256.65 103.283 256.63C104 256.609 104.713 256.76 105.36 257.07C105.69 257.205 106.125 257.4 106.26 257.73C106.291 257.803 106.305 257.882 106.299 257.961C106.294 258.04 106.269 258.116 106.228 258.184C106.187 258.251 106.13 258.308 106.063 258.349C105.995 258.39 105.919 258.415 105.84 258.42C105.789 258.418 105.738 258.426 105.69 258.444C105.641 258.462 105.597 258.489 105.56 258.524C105.522 258.559 105.492 258.601 105.47 258.647C105.449 258.694 105.437 258.744 105.435 258.795C105.435 259.44 106.695 259.26 107.115 258.375C107.245 258.101 107.289 257.793 107.241 257.493C107.193 257.193 107.055 256.915 106.845 256.695C105.937 256.031 104.861 255.635 103.739 255.553C102.617 255.47 101.495 255.705 100.5 256.23ZM100.68 254.685C101.685 253.485 100.785 251.055 97.1099 251.055C96.4149 250.943 95.7022 251.044 95.0652 251.343C94.4282 251.643 93.8966 252.128 93.5399 252.735C93.3677 253.04 93.2772 253.383 93.2772 253.733C93.2772 254.082 93.3677 254.426 93.5399 254.73C93.9581 255.233 94.5175 255.6 95.1459 255.781C95.7743 255.963 96.4428 255.952 97.0649 255.75C97.1724 255.75 97.2754 255.708 97.3513 255.632C97.4273 255.556 97.4699 255.453 97.4699 255.345C97.4699 255.238 97.4273 255.135 97.3513 255.059C97.2754 254.983 97.1724 254.94 97.0649 254.94C96.4349 254.775 95.7149 254.775 95.0999 254.565C94.4849 254.355 94.1549 253.815 94.5149 253.215C95.2799 251.955 97.7249 251.85 99.1499 252.63C100.575 253.41 100.23 254.55 98.4899 254.775C98.3786 254.775 98.2717 254.82 98.193 254.898C98.1142 254.977 98.0699 255.084 98.0699 255.195C98.0699 255.307 98.1142 255.413 98.193 255.492C98.2717 255.571 98.3786 255.615 98.4899 255.615C98.8991 255.618 99.3045 255.537 99.6811 255.377C100.058 255.217 100.398 254.981 100.68 254.685ZM162.675 279.36C161.134 279.176 159.572 279.283 158.07 279.675C155.49 280.38 155.7 282.975 157.935 283.215C159.848 283.342 161.767 283.342 163.68 283.215C164.565 282.69 164.34 281.475 164.25 281.145C164.235 280.711 164.069 280.296 163.782 279.971C163.495 279.645 163.104 279.429 162.675 279.36ZM158.28 280.86C159.21 280.575 162.105 280.095 162.885 280.665C163.125 280.845 163.965 282.36 162.315 282.36C160.996 282.34 159.679 282.25 158.37 282.09C156.795 281.82 157.395 281.16 158.28 280.815V280.86ZM147.48 93.7353C152.115 94.3503 205.665 101.01 211.8 101.565C212.415 101.565 212.4 100.65 211.92 100.65L132 90.8853C131.76 90.8853 131.46 91.2603 132.165 91.3653C135.705 91.8903 139.86 92.8053 147.48 93.7353ZM108.495 122.895C108.075 123.255 107.94 123.375 107.88 123.57C107.849 123.667 107.848 123.771 107.879 123.868C107.909 123.965 107.968 124.05 108.048 124.112C108.128 124.175 108.226 124.211 108.327 124.216C108.429 124.221 108.529 124.194 108.615 124.14C109.006 123.869 109.373 123.562 109.71 123.225C110.235 122.325 108.615 122.13 106.71 118.995C106.515 118.815 106.14 118.995 106.23 119.235C106.549 120.676 107.348 121.967 108.495 122.895ZM102 118.5C102.72 118.5 102.855 117.24 101.61 117.495C101.324 117.557 101.056 117.68 100.822 117.856C100.589 118.032 100.397 118.257 100.26 118.515C100.15 118.781 100.109 119.07 100.14 119.355C100.14 119.505 100.26 119.655 100.515 119.655C100.581 119.645 100.644 119.617 100.697 119.575C100.749 119.533 100.79 119.478 100.815 119.415C100.891 119.157 101.046 118.93 101.259 118.766C101.472 118.601 101.731 118.508 102 118.5ZM109.365 117.15C109.56 117.27 109.77 117.42 109.98 117.345C110.19 117.27 110.385 116.79 109.98 116.37C109.811 116.199 109.6 116.077 109.367 116.016C109.135 115.956 108.891 115.959 108.66 116.025C107.535 116.385 107.82 117.255 108.36 117.195C109.23 117.075 108.915 116.865 109.365 117.15ZM102.825 119.835C102.733 119.769 102.623 119.734 102.51 119.734C102.397 119.734 102.287 119.769 102.195 119.835C101.505 120.315 101.805 121.86 102.675 121.86C102.945 121.86 103.26 121.68 103.365 121.11C103.375 120.871 103.331 120.633 103.238 120.412C103.145 120.192 103.004 119.995 102.825 119.835ZM109.38 118.035C109.18 118.152 109.019 118.325 108.917 118.534C108.816 118.742 108.778 118.976 108.81 119.205C108.81 119.685 109.17 120.24 109.65 120.24C110.775 120.24 110.28 117.72 109.38 118.035ZM108.885 128.22C109.035 128.115 109.755 127.71 109.8 127.215C110.197 127.067 110.582 126.892 110.955 126.69C111.24 126.54 111.165 126.09 110.715 126.09C108.285 126.645 106.05 127.395 103.89 126.42C103.35 126.21 103.005 126.9 103.335 127.35C104.033 128.09 104.957 128.576 105.961 128.733C106.966 128.891 107.994 128.71 108.885 128.22ZM109.815 109.8C111.119 110.051 112.391 110.443 113.61 110.97C113.658 110.979 113.708 110.972 113.752 110.951C113.797 110.93 113.834 110.896 113.858 110.854C113.883 110.811 113.894 110.762 113.89 110.713C113.885 110.664 113.866 110.618 113.835 110.58C113.366 110.16 112.814 109.844 112.215 109.65C108.165 108.015 101.565 110.01 99.1799 107.625C99.1049 107.625 98.9549 107.625 99.0299 107.79C101.415 111 106.275 109.215 109.815 109.8Z"/>
  <path d="M103.41 108C103.845 107.805 103.875 107.55 103.41 107.49C102.397 107.448 101.391 107.297 100.41 107.04C99.825 106.86 99.99 107.265 100.23 107.46C100.698 107.755 101.22 107.955 101.766 108.048C102.312 108.14 102.87 108.124 103.41 108ZM96.93 114.375C96.542 115.203 96.1011 116.004 95.61 116.775C95.4591 117.024 95.3287 117.285 95.22 117.555C95.22 117.87 95.385 118.02 95.61 117.945C95.8552 117.78 96.0687 117.571 96.24 117.33C97.1635 115.947 97.8669 114.429 98.325 112.83C98.58 111.84 98.7 110.055 98.325 110.805C98.295 111 97.005 114.225 96.93 114.375ZM42.9 107.85C44.31 107.685 45.525 108.825 46.2 108.945C46.875 109.065 46.935 108.57 46.32 107.94C45.8838 107.468 45.3132 107.142 44.6854 107.005C44.0576 106.868 43.4029 106.928 42.81 107.175C42.42 107.25 42.51 107.85 42.9 107.85ZM98.13 137.235C98.13 137.13 98.13 136.875 97.605 136.8C97.08 136.725 96.21 136.695 95.865 137.1C95.8125 137.172 95.7843 137.259 95.7843 137.348C95.7843 137.437 95.8125 137.523 95.865 137.595C96.06 138.015 96.66 137.97 97.125 137.94C97.59 137.91 98.16 137.7 98.13 137.235ZM97.32 138.915C96.825 139.215 97.32 139.665 97.92 139.665C98.52 139.665 98.865 139.335 98.865 138.96C98.865 138.585 98.43 138.465 98.055 138.585C97.68 138.705 97.59 138.81 97.32 138.915ZM98.565 141.48C98.73 142.125 99.735 141.78 100.155 141.285C100.575 140.79 100.05 140.34 99.525 140.61C99.2233 140.742 98.9408 140.913 98.685 141.12C98.6285 141.159 98.5863 141.215 98.5647 141.28C98.543 141.345 98.5431 141.415 98.565 141.48ZM100.95 144.255C101.46 144.255 102.75 143.295 102.615 142.755C102.615 142.65 102.495 142.545 102.21 142.545C101.655 142.545 100.2 143.475 100.62 144.045C100.65 144.107 100.697 144.159 100.755 144.197C100.814 144.234 100.881 144.254 100.95 144.255ZM103.275 146.535C103.635 146.79 104.025 146.31 104.28 145.965C104.535 145.62 104.415 145.83 104.43 145.785C104.445 145.74 104.73 145.245 104.61 144.975C104.541 144.878 104.44 144.809 104.325 144.78C103.74 144.675 102.735 146.205 103.275 146.535ZM105.855 148.575C105.963 148.58 106.069 148.544 106.153 148.475C106.236 148.405 106.29 148.307 106.305 148.2V147.165C106.23 146.625 106.05 145.83 105.585 146.145C105.481 146.314 105.414 146.503 105.39 146.7C105.285 147.39 105.15 148.575 105.855 148.575ZM108.405 146.16C108.96 146.325 109.26 145.665 108.825 145.215C108.675 145.065 108.675 144.99 108.435 144.825C108.195 144.66 107.67 144.06 107.295 144.435C106.92 144.81 107.79 145.995 108.405 146.16ZM110.58 143.52C110.652 143.526 110.725 143.511 110.789 143.476C110.853 143.441 110.905 143.389 110.94 143.325C111.15 143.085 111.15 142.77 110.745 142.485C110.422 142.275 110.06 142.132 109.68 142.065C109.26 141.93 109.14 142.32 109.38 142.77C109.676 143.157 110.102 143.424 110.58 143.52ZM112.875 141.315C113.175 141.315 113.28 141.09 113.22 140.805C113.22 140.1 112.05 140.115 111.72 139.98C111.585 139.98 111.42 140.085 111.33 140.175C111.279 140.239 111.251 140.318 111.251 140.4C111.251 140.482 111.279 140.561 111.33 140.625C111.783 140.974 112.313 141.21 112.875 141.315ZM113.04 138.6C113.82 139.38 115.185 139.065 114.84 138.36C114.645 137.895 113.955 137.895 113.535 137.805C113.34 137.805 113.07 137.805 112.935 137.97C112.888 138.063 112.863 138.166 112.863 138.27C112.863 138.374 112.888 138.477 112.935 138.57L113.04 138.6ZM46.635 117.705C47.055 118.095 47.4 117.93 47.505 117.585C47.61 117.24 46.95 116.085 46.47 115.095C46.065 114.495 45.615 114.675 45.675 115.35C45.7514 116.214 46.0859 117.034 46.635 117.705ZM49.035 116.805C49.38 116.805 49.635 116.415 49.485 115.95C49.1661 115.325 48.8105 114.719 48.42 114.135C48.105 113.775 47.505 114.135 47.7 114.51C47.865 115.215 48.3 116.805 49.035 116.805ZM51.285 115.995C51.54 115.995 51.585 115.725 51.555 115.455C51.3148 114.603 50.8422 113.834 50.19 113.235C49.965 112.875 49.32 113.235 49.485 113.715C49.755 114.495 50.505 116.235 51.285 115.995ZM73.605 142.275C73.83 142.5 74.235 142.275 74.04 141.945C73.4797 141.048 72.8582 140.191 72.18 139.38C70.2459 136.963 68.5811 134.343 67.215 131.565C67.08 131.31 66.81 131.475 66.84 131.7C68.2124 135.718 70.5329 139.345 73.605 142.275ZM73.5 140.01C73.59 140.147 73.7093 140.263 73.8494 140.349C73.9894 140.434 74.1467 140.488 74.31 140.505C74.595 140.505 74.7299 140.205 74.505 139.845C73.6351 138.976 72.8375 138.038 72.12 137.04C72.0954 136.989 72.057 136.947 72.0093 136.917C71.9615 136.887 71.9063 136.871 71.85 136.871C71.7936 136.871 71.7384 136.887 71.6906 136.917C71.6429 136.947 71.6045 136.989 71.58 137.04C71.552 137.077 71.5368 137.122 71.5368 137.168C71.5368 137.214 71.552 137.258 71.58 137.295C72.1301 138.26 72.7731 139.17 73.5 140.01ZM235.5 43.3501C236.22 41.8736 236.594 40.2527 236.595 38.6101C236.748 37.049 236.35 35.4836 235.47 34.1851C232.71 30.7801 228.975 35.4151 227.43 39.5101C227.083 38.9006 226.642 38.349 226.125 37.8751C225.72 37.5209 225.219 37.2937 224.686 37.2217C224.152 37.1497 223.61 37.2361 223.125 37.4701C222.615 37.7951 222.191 38.2367 221.885 38.7583C221.58 39.28 221.404 39.8667 221.37 40.4701C221.194 41.369 221.154 42.2892 221.25 43.2001C220.732 43.1186 220.202 43.2194 219.75 43.4851C218.746 44.1116 218.013 45.0907 217.695 46.2301C217.515 46.6492 217.365 47.0802 217.245 47.5201C216.075 46.0201 213.84 45.1951 212.325 46.8301C211.668 47.6986 211.24 48.7184 211.08 49.7957C210.92 50.873 211.033 51.9732 211.41 52.9951C211.665 53.6401 212.685 53.3701 212.535 52.7101C212.091 51.134 212.251 49.449 212.985 47.9851C214.08 46.1251 216.9 47.7751 216.9 49.9651C216.924 50.1212 217.003 50.2635 217.122 50.3664C217.242 50.4693 217.395 50.5259 217.552 50.5259C217.71 50.5259 217.863 50.4693 217.983 50.3664C218.102 50.2635 218.181 50.1212 218.205 49.9651C218.285 48.9364 218.517 47.9252 218.895 46.9651C219.405 45.4651 220.185 43.9651 221.7 44.4751C222.181 44.7144 222.597 45.0678 222.911 45.5043C223.224 45.9409 223.427 46.4475 223.5 46.9801C223.5 47.4301 224.265 47.4301 224.25 46.8901C224.276 46.2343 224.141 45.5822 223.855 44.9911C223.57 44.3999 223.144 43.8879 222.615 43.5001C222.459 42.4374 222.495 41.3553 222.72 40.3051C223.305 37.6351 225.045 38.1451 225.72 39.1951C226.219 40.0208 226.546 40.9394 226.68 41.8951C226.716 42.0282 226.796 42.1456 226.906 42.2292C227.015 42.3129 227.149 42.3582 227.287 42.3582C227.425 42.3582 227.56 42.3129 227.669 42.2292C227.779 42.1456 227.858 42.0282 227.895 41.8951C228.138 40.3736 228.646 38.9065 229.395 37.5601C230.595 35.5351 232.395 32.9101 234.045 34.5601C235.695 36.2101 235.365 40.5601 234.6 43.0201C234.556 43.1394 234.562 43.2713 234.615 43.3866C234.669 43.502 234.766 43.5913 234.885 43.6351C235.004 43.6789 235.136 43.6734 235.251 43.62C235.367 43.5665 235.456 43.4694 235.5 43.3501ZM182.895 35.0251C183.03 35.4301 183.54 35.4451 183.72 34.8901C183.737 33.2344 184.343 31.6389 185.43 30.3901C187.53 28.3951 188.94 32.5651 190.125 35.1301C190.166 35.207 190.231 35.2682 190.31 35.3039C190.389 35.3396 190.478 35.3477 190.563 35.327C190.647 35.3064 190.722 35.258 190.776 35.1897C190.83 35.1214 190.86 35.0371 190.86 34.9501C190.842 33.8605 190.564 32.7909 190.05 31.8301C189.135 30.8851 187.68 28.0201 185.13 29.3701C185.122 28.3034 184.851 27.2551 184.341 26.3184C183.83 25.3816 183.097 24.5853 182.205 24.0001C180.84 23.2051 179.46 24.1051 178.71 25.5001C178.395 26.1548 178.158 26.8446 178.005 27.5551C177.932 27.8798 177.902 28.2126 177.915 28.5451V29.6251C177.201 28.9219 176.281 28.4648 175.29 28.3201C174.045 28.4251 173.505 30.0151 173.385 30.4951C173.094 31.6148 173.052 32.7847 173.262 33.9223C173.472 35.06 173.929 36.1378 174.6 37.0801C174.674 37.1492 174.769 37.1922 174.87 37.2026C174.97 37.2129 175.072 37.19 175.159 37.1373C175.245 37.0847 175.312 37.0052 175.349 36.9109C175.387 36.8166 175.392 36.7127 175.365 36.6151C174.735 34.5901 173.7 32.2651 174.72 30.2851C175.23 29.3701 175.74 29.4901 176.13 29.6701C177.308 30.3001 178.25 31.2948 178.815 32.5051C178.89 32.6322 179.009 32.7279 179.149 32.7746C179.29 32.8214 179.442 32.816 179.579 32.7595C179.715 32.7031 179.827 32.5993 179.893 32.4671C179.96 32.335 179.976 32.1834 179.94 32.0401C179.212 30.2648 179.128 28.2913 179.7 26.4601C180.705 24.0601 182.055 24.3901 183.165 26.6251C183.736 27.8017 184.019 29.0975 183.99 30.4051C183.044 31.7467 182.651 33.4016 182.895 35.0251ZM181.5 58.7851C181.947 57.766 182.057 56.6311 181.815 55.5451C181.185 51.0451 177.03 50.6701 174.96 54.6301C174.904 54.7473 174.854 54.8675 174.81 54.9901C173.88 52.3951 170.91 51.0901 169.035 53.0851C168.555 50.6551 166.425 47.5201 164.01 48.4801C163.293 48.8783 162.695 49.4609 162.278 50.1677C161.861 50.8744 161.641 51.6797 161.64 52.5001C160.455 51.3751 158.85 50.4001 157.35 51.0001C153.75 52.5001 155.085 58.5001 158.565 60.3301C158.955 60.5251 159.405 59.9851 159.06 59.6551C154.875 55.7401 156.375 51.4501 158.76 52.0501C160.263 52.6959 161.483 53.8623 162.195 55.3351C162.555 56.0701 163.695 55.4851 163.305 54.7501C162.15 52.2901 163.545 49.5751 164.805 49.5751C165.705 49.5751 166.485 50.5651 167.085 51.5551C167.563 52.4352 167.892 53.3879 168.06 54.3751C167.97 54.5851 167.85 54.7801 167.775 55.0051C167.237 56.388 167.153 57.9063 167.535 59.3401C167.547 59.3943 167.569 59.4456 167.601 59.4911C167.632 59.5366 167.673 59.5755 167.719 59.6054C167.766 59.6354 167.818 59.6558 167.873 59.6656C167.927 59.6754 167.983 59.6744 168.037 59.6626C168.092 59.6508 168.143 59.6284 168.188 59.5968C168.234 59.5651 168.273 59.5248 168.303 59.4781C168.333 59.4315 168.353 59.3794 168.363 59.3248C168.373 59.2702 168.372 59.2143 168.36 59.1601C168.278 57.4905 168.64 55.829 169.41 54.3451C170.55 52.4401 172.8 53.3701 173.505 55.2451C173.854 56.2941 174.021 57.3949 174 58.5001C173.996 58.6164 174.026 58.7314 174.088 58.8303C174.149 58.9291 174.239 59.0074 174.345 59.0551C174.438 59.1111 174.544 59.1403 174.652 59.1394C174.761 59.1385 174.867 59.1075 174.958 59.05C175.05 58.9925 175.124 58.9106 175.172 58.8135C175.22 58.7164 175.24 58.6079 175.23 58.5001C175.23 54.0901 178.89 50.8951 180.375 55.0801C180.723 56.1438 180.749 57.2866 180.45 58.3651C180.27 58.9951 181.185 59.4001 181.5 58.7851ZM242.655 60.6601L242.505 59.6251C242.257 58.407 241.547 57.332 240.525 56.6251C239.946 56.3367 239.284 56.2598 238.654 56.4077C238.024 56.5556 237.465 56.919 237.075 57.4351C234.585 60.1201 235.305 64.0801 235.965 66.2251C236.006 66.3033 236.072 66.3652 236.153 66.4008C236.234 66.4363 236.325 66.4433 236.41 66.4206C236.496 66.398 236.571 66.347 236.623 66.2761C236.676 66.2051 236.703 66.1184 236.7 66.0301C236.4 63.4951 235.995 60.0301 238.02 58.1551C238.198 57.9533 238.423 57.7993 238.676 57.7073C238.928 57.6153 239.2 57.5883 239.466 57.6286C239.731 57.6689 239.983 57.7753 240.197 57.9381C240.411 58.1008 240.58 58.3147 240.69 58.5601C241.491 60.1975 241.728 62.0538 241.365 63.8401C241.245 64.6351 242.475 64.9651 242.595 64.1401C243.045 60.9001 246.345 59.0851 247.26 60.7501C247.725 61.6051 247.56 63.0901 246.57 65.9101C246.544 66.0196 246.557 66.1346 246.605 66.2361C246.654 66.3376 246.735 66.4196 246.837 66.4685C246.938 66.5174 247.053 66.5303 247.163 66.5052C247.272 66.48 247.37 66.4183 247.44 66.3301C248.112 65.3379 248.501 64.1815 248.565 62.9851C248.793 61.9656 248.638 60.8979 248.13 59.9851C247.84 59.5534 247.423 59.2222 246.937 59.0369C246.451 58.8516 245.919 58.8213 245.415 58.9501C244.339 59.217 243.373 59.8151 242.655 60.6601ZM78.8849 39.1951C79.161 39.2243 79.4235 39.3294 79.6433 39.4989C79.8631 39.6684 80.0316 39.8956 80.13 40.1551C80.415 40.7851 80.4149 41.6551 80.7599 42.2701C80.8104 42.3355 80.8752 42.3884 80.9493 42.4248C81.0234 42.4612 81.1049 42.4802 81.1875 42.4802C81.27 42.4802 81.3515 42.4612 81.4256 42.4248C81.4997 42.3884 81.5645 42.3355 81.615 42.2701C81.7607 41.8077 81.8013 41.3186 81.7339 40.8385C81.6664 40.3584 81.4925 39.8994 81.225 39.4951C81.0549 39.0419 80.7477 38.6531 80.3461 38.3828C79.9445 38.1126 79.4685 37.9745 78.9847 37.9877C78.5008 38.0009 78.0331 38.1648 77.6468 38.4565C77.2606 38.7483 76.975 39.1533 76.83 39.6151C76.6618 39.3056 76.4164 39.0449 76.1176 38.8584C75.8188 38.6719 75.4768 38.566 75.1249 38.5509C74.773 38.5358 74.4232 38.612 74.1095 38.7722C73.7959 38.9325 73.529 39.1712 73.335 39.4651C72.6994 40.3808 72.3726 41.4754 72.4023 42.5896C72.432 43.7039 72.8165 44.7796 73.5 45.6601C73.785 45.9301 74.28 45.6601 74.115 45.3451C73.758 44.5075 73.5499 43.6142 73.5 42.7051C73.5 41.6251 73.8 40.1851 74.7 39.7051C74.8658 39.6279 75.0539 39.6126 75.23 39.6622C75.4061 39.7117 75.5587 39.8227 75.66 39.9751C76.185 40.6051 76.35 41.4751 76.89 42.1351C77.43 42.7951 78.1349 42.1351 77.985 41.5501C77.7652 40.9847 77.7705 40.3566 78 39.7951C78.0761 39.6219 78.1995 39.4738 78.356 39.3676C78.5126 39.2615 78.6959 39.2017 78.8849 39.1951ZM92.37 41.5651C90.15 40.6501 88.11 42.9751 88.335 45.4201C88.335 45.5103 88.3662 45.5976 88.4233 45.6674C88.4805 45.7371 88.5601 45.7848 88.6485 45.8025C88.7369 45.8202 88.8287 45.8067 88.9083 45.7643C88.9878 45.722 89.0503 45.6533 89.085 45.5701C89.2357 44.8368 89.515 44.136 89.91 43.5001C90.0534 43.2737 90.2445 43.0813 90.4698 42.9362C90.6952 42.7911 90.9495 42.6969 91.215 42.6601C91.86 42.6601 92.34 42.8851 92.4 44.0251C92.4 44.8351 92.52 45.4201 92.865 45.5251C92.953 45.5519 93.0471 45.552 93.1352 45.5253C93.2234 45.4986 93.3016 45.4463 93.36 45.3751C94.5 44.4001 93.54 42.0001 92.37 41.5651ZM117.18 54.8851C117.233 54.9547 117.306 55.0054 117.39 55.0297C117.474 55.0541 117.563 55.0507 117.645 55.0201C118.125 54.8251 118.185 53.5201 118.185 53.5201C118.194 52.9698 118.06 52.4266 117.798 51.943C117.535 51.4595 117.152 51.052 116.685 50.7601C117.254 50.1631 117.649 49.4211 117.825 48.6151C118.68 45.5101 115.905 43.1401 113.175 44.7451C113.34 42.8251 112.005 41.1751 110.04 41.6701C108.959 41.9485 107.998 42.5697 107.3 43.4405C106.603 44.3113 106.206 45.3848 106.17 46.5001C106.17 46.5447 106.179 46.5889 106.196 46.6299C106.214 46.671 106.24 46.7081 106.272 46.7389C106.304 46.7698 106.342 46.7937 106.384 46.8094C106.426 46.8251 106.47 46.8321 106.515 46.8301C106.556 46.8321 106.598 46.826 106.637 46.812C106.676 46.798 106.712 46.7764 106.742 46.7486C106.773 46.7207 106.798 46.687 106.815 46.6496C106.833 46.6121 106.843 46.5715 106.845 46.5301C107.46 43.2151 111.105 41.5651 111.765 43.6951C111.908 44.6557 111.745 45.6369 111.3 46.5001C111.248 46.6401 111.248 46.7937 111.3 46.9338C111.351 47.0738 111.45 47.1912 111.579 47.265C111.709 47.3388 111.861 47.3642 112.007 47.3368C112.154 47.3093 112.286 47.2308 112.38 47.1151C112.965 46.4401 114.45 44.9401 115.83 45.6901C117.21 46.4401 116.58 49.5001 115.155 50.4601C114.336 50.5409 113.553 50.8319 112.88 51.305C112.207 51.7781 111.668 52.4172 111.315 53.1601C111.045 53.6851 111.78 54.0901 112.245 53.6251C113.19 52.2751 114.945 51.3001 116.1 52.0351C117.57 53.2051 116.52 54.2401 117.18 54.8851Z"/>
  <path d="M256.05 277.38C253.98 276.72 252.03 276.09 249.555 275.415C229.155 269.865 231.42 270.495 227.385 269.415C228.763 268.279 229.878 266.858 230.655 265.25C231.432 263.643 231.851 261.886 231.885 260.1C238.86 262.125 239.385 262.05 241.86 262.905C242.46 263.055 242.715 262.14 242.145 262.005C238.92 260.925 235.77 259.755 227.865 257.655C221.25 255.825 199.2 250.005 194.865 248.895C194.04 248.572 193.251 248.165 192.51 247.68C191.641 247.067 190.876 246.317 190.245 245.46C184.83 238.89 184.005 230.01 183.765 221.25C183.765 218.835 182.505 178.935 182.445 176.37C187.35 177.765 240.3 190.605 240.795 190.71C240.934 190.746 241.082 190.725 241.206 190.652C241.33 190.579 241.419 190.459 241.455 190.32C241.491 190.181 241.47 190.033 241.397 189.909C241.324 189.786 241.204 189.696 241.065 189.66C236.175 188.31 194.025 178.02 192.36 177.585C192.9 177.06 193.605 176.25 193.86 175.875C196.605 176.565 239.67 187.275 244.17 188.205C244.309 188.239 244.456 188.216 244.579 188.142C244.701 188.067 244.789 187.947 244.822 187.808C244.856 187.668 244.833 187.521 244.759 187.399C244.684 187.277 244.564 187.189 244.425 187.155C237.39 185.205 245.655 121.86 246.975 118.62C247.056 118.588 247.126 118.533 247.176 118.46C247.225 118.388 247.251 118.303 247.251 118.215C247.251 118.128 247.225 118.042 247.176 117.97C247.126 117.898 247.056 117.842 246.975 117.81C244.41 117.165 181.185 107.505 179.595 107.4C179.495 107.401 179.397 107.431 179.313 107.486C179.229 107.541 179.163 107.619 179.122 107.71C179.081 107.802 179.067 107.903 179.081 108.003C179.096 108.102 179.139 108.195 179.205 108.27C179.205 120.135 178.65 93.2702 181.77 190.935C183.015 229.665 183.06 231.18 184.77 237.075C185.894 241.157 188.048 244.881 191.025 247.89C189.99 247.62 181.26 245.4 180.195 245.1C179.356 244.712 178.562 244.234 177.825 243.675C176.992 243.015 176.214 242.288 175.5 241.5C169.68 234.975 169.38 225.945 169.215 217.215C167.505 129.18 167.715 107.235 167.715 107.235C167.715 107.235 95.715 96.1502 86.55 94.8302C86.4946 94.7771 86.4248 94.7415 86.3492 94.7278C86.2737 94.7142 86.1958 94.7232 86.1254 94.7536C86.0549 94.784 85.995 94.8346 85.9531 94.8989C85.9112 94.9632 85.8893 95.0385 85.89 95.1152C85.89 99.2852 86.535 128.58 86.775 133.08C81.1504 131.486 75.6828 129.382 70.44 126.795C70.065 117.18 69.03 102.42 72.825 93.1202C74.76 88.3652 78.915 84.1202 85.53 80.2652C93.81 75.3452 100.845 71.9402 116.28 66.9452C125.7 63.9452 130.425 63.1502 139.86 63.8552L245.895 71.4602C246.27 71.4602 246.3 70.4852 245.76 70.4702C223.95 68.2502 171.255 64.6652 151.41 63.3152C135.405 62.2202 130.89 61.2152 119.64 64.4252C116.31 65.3852 111.6 66.8552 106.425 68.7752C106.665 62.1602 101.115 61.3652 94.53 60.6302C93.645 60.5252 52.425 57.0302 30.15 55.2902C29.0166 53.3576 28.6931 51.0553 29.25 48.8852C29.85 46.7552 30.75 47.0702 31.365 47.2502C32.4966 47.642 33.523 48.2887 34.365 49.1402C34.4749 49.2322 34.613 49.284 34.7564 49.2869C34.8997 49.2899 35.0398 49.2438 35.1534 49.1564C35.2671 49.069 35.3475 48.9454 35.3814 48.8061C35.4153 48.6668 35.4007 48.5201 35.34 48.3902C34.8808 47.704 34.5457 46.9424 34.35 46.1402C34.17 45.4052 34.095 44.6402 34.65 44.3552C35.76 43.5752 37.005 44.5652 38.1 45.6602C38.2191 45.7504 38.367 45.7941 38.5161 45.7832C38.6651 45.7723 38.805 45.7075 38.9098 45.6009C39.0145 45.4943 39.0769 45.3533 39.0852 45.2041C39.0935 45.0549 39.0472 44.9078 38.955 44.7902C37.4378 43.2302 36.5372 41.1732 36.42 39.0002C36.3993 38.6403 36.4632 38.2806 36.6064 37.9498C36.7497 37.619 36.9684 37.3264 37.245 37.0952C38.16 36.5702 39.33 37.3052 40.11 37.8002C41.2022 38.4766 42.0972 39.4284 42.705 40.5602C42.6374 41.1232 42.6374 41.6922 42.705 42.2552C42.705 42.7202 43.365 42.8552 43.545 42.2552C43.6237 41.5626 43.7489 40.876 43.92 40.2002C44.31 38.6102 44.925 37.5002 46.305 37.0952C47.685 36.6902 48.99 38.0852 49.98 39.1352C50.8928 40.0447 51.6707 41.0802 52.29 42.2102C52.3669 42.3283 52.4805 42.418 52.6132 42.4654C52.746 42.5129 52.8906 42.5156 53.025 42.473C53.1594 42.4305 53.2762 42.3451 53.3574 42.2299C53.4387 42.1147 53.48 41.9761 53.475 41.8352C53.4912 40.9914 53.7807 40.1755 54.3 39.5102C54.945 38.9402 56.415 40.2002 56.715 40.6202C57.255 41.3702 57.795 41.3702 58.005 41.1302C58.215 40.8902 57.795 39.9602 57.795 39.9602C57.15 38.6552 58.545 37.5452 60.045 37.7252C61.545 37.9052 62.34 39.2252 63.855 39.9452C64.515 40.2602 64.56 39.3002 64.14 38.9102C63.7279 38.3505 63.2201 37.8681 62.64 37.4852C62.263 36.7717 62.1087 35.9614 62.1969 35.1593C62.2852 34.3571 62.6119 33.5998 63.135 32.9852C64.845 31.3652 67.875 32.5802 68.79 32.9852C68.9195 33.0502 69.0679 33.0673 69.2089 33.0336C69.3498 32.9999 69.4744 32.9174 69.5605 32.8008C69.6466 32.6842 69.6887 32.541 69.6795 32.3963C69.6702 32.2517 69.6102 32.1149 69.51 32.0102C68.01 30.1652 65.73 28.3952 65.13 26.0102C64.665 24.2102 65.265 21.9602 67.065 21.5102C68.6153 21.3883 70.1554 21.8482 71.385 22.8002C71.925 23.1152 72.405 22.5752 72.255 21.9752C71.6303 20.8114 71.291 19.5158 71.265 18.1952C71.2725 17.7268 71.4025 17.2686 71.642 16.866C71.8814 16.4634 72.222 16.1304 72.63 15.9002C74.4 15.0002 76.95 17.6552 78 19.1852C78.39 19.7102 79.32 19.3652 79.095 18.6752C78.195 15.6752 78.765 13.1552 80.595 12.0302C81.2063 11.6688 81.9058 11.484 82.6158 11.4963C83.3258 11.5086 84.0185 11.7175 84.6169 12.0999C85.2153 12.4822 85.6959 13.023 86.0054 13.6621C86.3149 14.3012 86.4411 15.0137 86.37 15.7202C86.37 16.4702 87.465 16.4852 87.585 15.7202C87.6614 15.2231 87.6614 14.7173 87.585 14.2202C88.275 12.4802 89.085 11.5052 90.81 12.3752C92.535 13.2452 92.55 15.2552 92.7 16.8752V17.0102C92.82 17.7752 94.02 17.7752 93.915 17.0102C93.78 15.7952 95.715 14.5202 97.245 16.2602C98.775 18.0002 98.415 20.1752 98.13 22.3352C98.0803 22.45 98.0773 22.5796 98.1218 22.6965C98.1662 22.8134 98.2545 22.9083 98.3679 22.9611C98.4813 23.0139 98.6108 23.0203 98.7288 22.9791C98.8469 22.9378 98.9442 22.8521 99 22.7402C99.507 21.8887 99.7618 20.9108 99.735 19.9202C101.4 18.2252 103.095 16.7102 105.42 17.3252C105.934 17.4955 106.391 17.8015 106.745 18.2108C107.099 18.6201 107.336 19.1174 107.43 19.6502C107.641 20.9658 107.512 22.3135 107.055 23.5652C106.607 25.1066 106.04 26.611 105.36 28.0652C105.278 28.2084 105.257 28.3782 105.301 28.5371C105.344 28.6961 105.449 28.8312 105.592 28.9127C105.736 28.9943 105.905 29.0156 106.064 28.972C106.223 28.9284 106.358 28.8234 106.44 28.6802C107.118 27.6566 108.035 26.8132 109.112 26.2226C110.188 25.632 111.392 25.3121 112.62 25.2902C113.184 25.2493 113.747 25.3683 114.246 25.6337C114.745 25.8991 115.159 26.3 115.44 26.7902C116.685 29.0852 115.275 31.4702 113.61 33.9152C113.545 33.9874 113.502 34.0765 113.486 34.1721C113.47 34.2678 113.482 34.366 113.52 34.4552C113.566 34.5523 113.636 34.636 113.723 34.6985C113.81 34.7609 113.912 34.8 114.019 34.8121C114.126 34.8241 114.234 34.8086 114.333 34.7672C114.432 34.7257 114.519 34.6597 114.585 34.5752C115.516 33.4622 116.251 32.1993 116.76 30.8402C117.058 30.5073 117.469 30.298 117.913 30.2535C118.358 30.2091 118.802 30.3328 119.16 30.6002C119.7 30.9602 120.225 31.3652 120.54 34.2902C120.543 34.4404 120.602 34.584 120.704 34.6942C120.806 34.8043 120.945 34.8732 121.094 34.888C121.244 34.9027 121.394 34.8623 121.515 34.7743C121.637 34.6863 121.722 34.5568 121.755 34.4102C122.04 33.3002 122.52 32.0702 123.54 32.5502C124.56 33.0302 125.04 34.4402 125.61 35.5502C125.656 35.6303 125.727 35.6936 125.812 35.7308C125.896 35.768 125.991 35.7773 126.081 35.7572C126.171 35.7371 126.253 35.6888 126.314 35.6192C126.375 35.5496 126.412 35.4624 126.42 35.3702C126.324 34.4515 126.038 33.5627 125.58 32.7602C125.645 31.654 125.946 30.5745 126.465 29.5952C126.976 28.6909 127.75 27.9637 128.685 27.5102C131.94 26.1452 134.385 29.6252 135.435 32.9552C135.481 33.1163 135.589 33.2527 135.735 33.3343C135.881 33.4158 136.054 33.436 136.215 33.3902C136.376 33.3445 136.512 33.2366 136.594 33.0903C136.676 32.944 136.696 32.7713 136.65 32.6102C136.559 32.1195 136.575 31.615 136.697 31.1309C136.818 30.6469 137.042 30.1946 137.354 29.8048C137.665 29.415 138.057 29.0967 138.502 28.8716C138.948 28.6465 139.436 28.5199 139.935 28.5002C142.515 28.2002 144.585 30.5552 145.11 33.0002C145.275 34.5432 145.194 36.1026 144.87 37.6202C144.864 37.7201 144.893 37.8189 144.954 37.8989C145.014 37.9788 145.1 38.0347 145.198 38.0564C145.296 38.0781 145.398 38.0642 145.486 38.0173C145.575 37.9703 145.643 37.8933 145.68 37.8002C146.05 37.1487 146.284 36.4294 146.37 35.6852C147.228 36.0313 147.927 36.6822 148.334 37.5128C148.742 38.3435 148.827 39.2953 148.575 40.1852C147.406 39.3802 146.121 38.758 144.765 38.3402C143.986 38.1593 143.178 38.1465 142.393 38.3027C141.609 38.4589 140.867 38.7805 140.217 39.2461C139.567 39.7117 139.023 40.3106 138.623 41.0027C138.223 41.6949 137.974 42.4645 137.895 43.2602C137.717 44.9245 137.944 46.6071 138.555 48.1652C138.103 48.1781 137.661 48.3027 137.268 48.5277C136.875 48.7528 136.545 49.0714 136.305 49.4552C136.08 49.8161 135.934 50.2207 135.877 50.6422C135.82 51.0638 135.854 51.4926 135.975 51.9002C135.309 51.6679 134.604 51.5721 133.9 51.6185C133.196 51.6649 132.509 51.8525 131.88 52.1702C131.141 52.5928 130.527 53.2032 130.1 53.9394C129.673 54.6756 129.448 55.5116 129.448 56.3627C129.448 57.2138 129.673 58.0498 130.1 58.7861C130.527 59.5223 131.141 60.1326 131.88 60.5552C132.3 60.7802 132.63 60.1202 132.255 59.9402C131.576 59.4292 131.062 58.7312 130.774 57.9318C130.486 57.1325 130.438 56.2666 130.635 55.4402C130.852 54.8105 131.232 54.2498 131.738 53.8159C132.243 53.382 132.855 53.0905 133.51 52.9713C134.165 52.8522 134.84 52.9097 135.466 53.138C136.092 53.3663 136.645 53.7571 137.07 54.2702C137.55 54.9002 138.465 54.0752 137.97 53.4452C137.562 53.0597 137.273 52.5642 137.14 52.0186C137.007 51.473 137.035 50.9005 137.22 50.3702C137.565 49.7402 138.51 49.2302 139.125 49.6652C139.234 49.7528 139.37 49.8014 139.51 49.8035C139.65 49.8055 139.786 49.7609 139.898 49.6766C140.01 49.5923 140.09 49.4732 140.127 49.338C140.164 49.2029 140.154 49.0594 140.1 48.9302C139.215 46.8752 138.105 43.0502 140.595 40.5602C142.86 38.2952 146.07 39.8702 148.365 41.5952C149.767 42.5286 151.012 43.6778 152.055 45.0002C152.138 45.1203 152.262 45.2067 152.403 45.2441C152.544 45.2815 152.694 45.2673 152.826 45.2041C152.958 45.1409 153.063 45.0328 153.122 44.8993C153.182 44.7657 153.191 44.6154 153.15 44.4752C152.481 42.6211 152.042 40.6915 151.845 38.7302C151.845 38.1452 151.995 37.7702 152.31 37.6202C152.88 37.3202 154.035 37.7852 154.905 38.3852C155.355 38.6852 155.925 37.9952 155.505 37.5752C154.58 36.8786 153.779 36.0319 153.135 35.0702C152.496 33.849 152.235 32.4653 152.385 31.0952C152.394 30.6148 152.523 30.1442 152.758 29.7254C152.994 29.3067 153.329 28.9527 153.735 28.6952C155.79 27.6752 159.12 29.8502 160.11 30.5552C160.229 30.6321 160.373 30.663 160.513 30.6421C160.653 30.6213 160.781 30.55 160.873 30.4417C160.965 30.3334 161.014 30.1954 161.012 30.0535C161.009 29.9115 160.955 29.7753 160.86 29.6702C159.948 28.5636 159.292 27.2688 158.939 25.8788C158.587 24.4887 158.546 23.0379 158.82 21.6302C158.874 20.9883 159.066 20.3655 159.381 19.8039C159.697 19.2424 160.13 18.7552 160.65 18.3752C161.925 17.7002 163.305 19.1402 164.01 19.8752C165.274 21.3017 166.357 22.8786 167.235 24.5702C167.308 24.6946 167.421 24.7908 167.555 24.8435C167.69 24.8962 167.838 24.9023 167.976 24.8608C168.114 24.8193 168.235 24.7327 168.318 24.6147C168.401 24.4968 168.442 24.3544 168.435 24.2102C168.285 22.6202 168.435 20.5502 169.8 19.7102C170.85 19.0802 172.515 19.3952 172.485 20.8352C172.485 20.9864 172.545 21.1314 172.652 21.2383C172.759 21.3452 172.904 21.4052 173.055 21.4052C173.206 21.4052 173.351 21.3452 173.458 21.2383C173.565 21.1314 173.625 20.9864 173.625 20.8352C173.681 20.2419 173.515 19.6488 173.16 19.1702C172.748 17.4133 172.96 15.5677 173.76 13.9502C175.02 12.0602 176.01 11.9252 177.66 14.0402C178.395 15.0495 179.061 16.1069 179.655 17.2052C179.735 17.3244 179.854 17.4118 179.992 17.4523C180.13 17.4927 180.278 17.4837 180.41 17.4267C180.541 17.3697 180.649 17.2683 180.714 17.1402C180.779 17.0121 180.797 16.8652 180.765 16.7252C179.145 8.13022 185.265 1.93522 188.835 6.22522C190.44 8.13022 190.335 11.4902 190.665 11.8202C190.165 12.8362 189.918 13.9581 189.945 15.0902C189.948 15.2023 189.991 15.3097 190.067 15.3924C190.142 15.4752 190.245 15.5278 190.357 15.5406C190.468 15.5534 190.581 15.5255 190.673 15.462C190.765 15.3985 190.832 15.3038 190.86 15.1952C191.475 10.6952 194.595 7.84522 196.47 7.84522C197.43 7.84522 198.045 8.56522 198.24 9.91522C198.485 11.4052 198.485 12.9252 198.24 14.4152C198.135 15.0602 199.05 15.3452 199.44 14.7902C200.565 12.4202 201.99 11.1602 203.67 11.0402C204.115 10.9774 204.568 11.0331 204.984 11.2017C205.4 11.3703 205.764 11.6457 206.04 12.0002C207.285 13.6802 206.85 17.0402 206.235 18.8102C206.187 18.9156 206.183 19.0357 206.224 19.144C206.265 19.2523 206.347 19.34 206.452 19.3877C206.558 19.4355 206.678 19.4394 206.786 19.3986C206.895 19.3578 206.982 19.2756 207.03 19.1702C207.577 18.2515 207.929 17.2305 208.065 16.1702C208.144 15.2689 208.426 14.3971 208.89 13.6202C210.39 11.0852 213.39 9.03022 215.67 11.4752C216.313 12.3407 216.646 13.3975 216.615 14.4752C216.469 16.064 216.053 17.6163 215.385 19.0652C215.145 19.7552 216.09 20.1002 216.48 19.5752C217.091 18.7727 217.837 18.0825 218.685 17.5352C219.057 17.1967 219.492 16.936 219.966 16.7685C220.44 16.6011 220.943 16.5302 221.445 16.5602C221.802 16.6771 222.119 16.8902 222.363 17.176C222.606 17.4618 222.766 17.8093 222.825 18.1802C222.984 19.2836 222.881 20.4089 222.525 21.4652C222.488 21.6206 222.511 21.7845 222.589 21.9235C222.668 22.0626 222.797 22.1665 222.95 22.2142C223.102 22.2619 223.267 22.2498 223.411 22.1803C223.555 22.1109 223.667 21.9893 223.725 21.8402C224.055 20.7902 225.225 17.2502 227.34 16.1552C227.584 16.0371 227.848 15.9689 228.119 15.9549C228.389 15.9409 228.66 15.9812 228.914 16.0735C229.169 16.1658 229.402 16.3082 229.601 16.4923C229.799 16.6764 229.959 16.8984 230.07 17.1452C230.611 18.3797 230.788 19.7434 230.58 21.0752C230.58 21.2264 230.64 21.3714 230.747 21.4783C230.854 21.5852 230.999 21.6452 231.15 21.6452C231.301 21.6452 231.446 21.5852 231.553 21.4783C231.66 21.3714 231.72 21.2264 231.72 21.0752C231.952 19.8047 231.901 18.4986 231.57 17.2502C231.427 16.7695 231.191 16.3218 230.874 15.9331C230.557 15.5443 230.167 15.2221 229.725 14.9852C228.881 13.3562 228.627 11.4854 229.005 9.69022C229.455 7.62022 230.73 5.19022 232.365 6.69022C233.234 7.4995 233.853 8.54044 234.15 9.69022C234.193 9.83019 234.284 9.95074 234.406 10.0312C234.529 10.1116 234.675 10.1468 234.821 10.1308C234.966 10.1149 235.102 10.0487 235.204 9.9436C235.306 9.83855 235.368 9.70121 235.38 9.55522C235.279 8.48073 235.392 7.3968 235.714 6.36667C236.036 5.33653 236.56 4.3808 237.255 3.55522C237.697 3.09366 238.235 2.73485 238.832 2.50417C239.428 2.27349 240.067 2.17655 240.705 2.22022C241.088 2.26379 241.456 2.39634 241.779 2.60729C242.102 2.81824 242.371 3.10176 242.565 3.43522C243.126 4.63597 243.404 5.94998 243.375 7.27522C243.397 7.4124 243.467 7.53721 243.573 7.62729C243.679 7.71737 243.813 7.76684 243.952 7.76684C244.091 7.76684 244.226 7.71737 244.332 7.62729C244.437 7.53721 244.508 7.4124 244.53 7.27522C244.659 5.84464 244.405 4.40546 243.795 3.10522C241.905 -0.209782 237.105 0.105218 234.795 5.23522C234.535 5.76981 234.324 6.32714 234.165 6.90022C233.085 5.31022 231.54 4.26022 230.01 5.40022C227.745 7.15522 227.01 11.7452 228.345 14.4002C227.629 14.5398 226.952 14.837 226.365 15.2702C225.466 16.0464 224.705 16.9695 224.115 18.0002C223.972 17.4712 223.705 16.9835 223.338 16.5768C222.97 16.1702 222.512 15.8561 222 15.6602C220.5 15.1802 219 16.1702 217.635 17.1602C217.992 16.1987 218.113 15.1655 217.988 14.1475C217.863 13.1295 217.495 12.1564 216.915 11.3102C214.845 8.40022 209.565 9.42022 207.42 13.8752C207.291 13.2504 207.068 12.6487 206.76 12.0902C205.26 9.70522 201.51 9.61522 199.26 12.5852C199.26 10.3052 199.11 7.87522 197.01 7.26022C194.91 6.64522 192.51 8.58022 191.1 10.6952C190.938 9.1499 190.425 7.66204 189.6 6.34522C185.61 0.705218 178.455 6.57022 178.8 14.6552C177.9 13.3202 176.94 11.9552 175.485 11.7602C174.928 11.726 174.372 11.8381 173.872 12.0855C173.372 12.3329 172.946 12.7068 172.635 13.1702C172.079 13.965 171.687 14.8622 171.481 15.8098C171.275 16.7574 171.259 17.7365 171.435 18.6902C169.665 17.9852 167.115 19.0802 166.68 22.3802C166.046 21.3903 165.329 20.4569 164.535 19.5902C163.35 18.2702 161.94 16.9202 160.2 17.3402C158.46 17.7602 157.575 19.8902 157.32 20.7602C156.555 23.3661 156.829 26.1672 158.085 28.5752C157.322 28.1159 156.476 27.8131 155.595 27.6843C154.715 27.5556 153.817 27.6035 152.955 27.8252C150.69 28.7552 150.33 31.8002 150.96 34.2152C151.177 35.0272 151.526 35.7976 151.995 36.4952C151.518 36.5278 151.065 36.7155 150.705 37.0297C150.345 37.3438 150.097 37.7672 150 38.2352C149.875 39.6786 150.064 41.132 150.555 42.4952C150.081 42.0167 149.581 41.5659 149.055 41.1452C149.294 40.5215 149.401 39.8552 149.371 39.188C149.341 38.5208 149.173 37.867 148.879 37.2674C148.585 36.6678 148.17 36.1353 147.661 35.703C147.152 35.2708 146.559 34.9482 145.92 34.7552C145.926 34.2537 145.896 33.7524 145.83 33.2552C144.87 27.2552 137.595 25.2152 135.195 30.3452C134.435 28.8693 133.269 27.6411 131.835 26.8052C128.835 25.1852 124.755 27.2402 124.11 31.8302C123.893 31.6467 123.64 31.5102 123.368 31.4292C123.096 31.3483 122.81 31.3247 122.528 31.3599C122.246 31.3952 121.974 31.4885 121.73 31.634C121.486 31.7795 121.275 31.974 121.11 32.2052C120.465 29.7602 118.62 28.8602 116.85 29.4452C116.953 28.8567 116.937 28.2535 116.805 27.671C116.672 27.0884 116.424 26.5381 116.077 26.0522C115.729 25.5663 115.288 25.1545 114.78 24.8408C114.271 24.5271 113.705 24.3179 113.115 24.2252C111.061 24.0622 109.017 24.6425 107.355 25.8602C107.565 25.2602 107.715 24.6752 107.88 24.1202C110.25 16.0802 103.635 13.7552 99.285 18.4952C98.565 14.6702 95.385 13.3952 93.375 15.0152C93.294 14.2452 93.0208 13.5078 92.5805 12.8709C92.1402 12.234 91.5468 11.7179 90.855 11.3702C90.4821 11.1605 90.0675 11.0359 89.6408 11.0056C89.214 10.9753 88.7859 11.0399 88.3872 11.1948C87.9884 11.3497 87.6289 11.5911 87.3346 11.9015C87.0403 12.212 86.8184 12.5838 86.685 12.9902C86.3732 12.4049 85.947 11.8881 85.4316 11.4707C84.9163 11.0533 84.3223 10.7436 83.685 10.5602C80.565 9.69022 76.95 11.8202 77.28 16.9652C76.1932 15.9122 74.8562 15.1534 73.395 14.7602C71.265 14.5052 69.72 16.5902 69.72 18.7052C69.7209 19.4879 69.8579 20.2645 70.125 21.0002C64.995 18.3752 61.125 23.8802 65.025 29.2352C65.5562 29.9416 66.1324 30.613 66.75 31.2452C64.32 30.7502 62.01 31.3952 61.065 33.6752C60.6631 34.667 60.5998 35.7638 60.885 36.7952C60.3822 36.6073 59.8459 36.5256 59.31 36.5552C58.6276 36.5776 57.9733 36.8321 57.4551 37.2767C56.937 37.7212 56.5859 38.3292 56.46 39.0002C55.891 38.4978 55.1637 38.2112 54.405 38.1902C53.43 38.2952 52.74 39.4052 52.395 40.3352C50.58 37.9502 47.895 35.1752 45.345 36.1802C44.7817 36.4636 44.283 36.8604 43.8803 37.3457C43.4776 37.831 43.1796 38.3943 43.005 39.0002C41.61 37.2752 39.045 35.3552 37.14 36.0002C34.47 36.8102 34.95 40.5002 36.195 43.0952C35.7663 42.9421 35.3039 42.9094 34.8579 43.0006C34.4119 43.0919 33.9995 43.3037 33.6655 43.613C33.3315 43.9223 33.0887 44.3172 32.9634 44.7548C32.8381 45.1924 32.8352 45.6561 32.955 46.0952C33.0053 46.3946 33.0754 46.6902 33.165 46.9802C31.83 46.2602 30.165 45.4802 29.13 46.5902C27.33 48.3902 27.27 52.4402 28.86 55.2302L11.685 53.8952C11.5537 53.8952 11.4278 53.9474 11.335 54.0402C11.2421 54.133 11.19 54.2589 11.19 54.3902C11.19 54.5215 11.2421 54.6474 11.335 54.7402C11.4278 54.8331 11.5537 54.8852 11.685 54.8852C12.66 54.8852 95.205 61.8152 96.66 62.1002C99.57 62.6852 103.5 62.7452 104.88 65.9252C105.288 66.9452 105.487 68.0368 105.465 69.1352C99.2487 71.4344 93.229 74.2335 87.465 77.5052C80.85 81.0902 76.305 84.7952 73.59 88.8302C67.785 97.5302 68.295 115.08 69.09 126.135C64.1675 123.649 59.6224 120.477 55.59 116.715C56.04 115.365 55.5 94.1102 55.5 93.9602C55.5 93.3452 55.395 93.2552 55.245 93.2252C53.46 93.0002 11.625 86.7752 10.5 86.7002C10.4276 86.7005 10.3573 86.7246 10.3 86.7688C10.2426 86.813 10.2014 86.8748 10.1826 86.9447C10.1639 87.0146 10.1686 87.0888 10.1961 87.1557C10.2237 87.2227 10.2725 87.2787 10.335 87.3152C10.98 89.4752 4.91999 134.79 4.33499 137.565C4.24627 137.59 4.16801 137.642 4.11222 137.716C4.05644 137.789 4.02623 137.878 4.02623 137.97C4.02623 138.062 4.05644 138.152 4.11222 138.225C4.16801 138.298 4.24627 138.351 4.33499 138.375C6.89999 139.29 51.285 148.755 54.96 149.535C54.96 152.16 55.62 189.87 55.635 190.62C55.845 199.065 56.175 207.57 62.4 213.51C62.6629 213.766 62.9492 213.997 63.255 214.2C59.565 213.63 51.66 212.13 50.415 211.89C23.775 206.865 9.50999 202.275 0.91499 200.4C0.65999 200.4 0.61499 200.565 0.61499 200.625C0.61499 200.685 0.614992 201.015 7.79999 203.085C20.475 206.715 19.8 206.085 19.56 206.46C18.483 207.63 17.8054 209.111 17.625 210.69C15.1935 209.772 12.683 209.079 10.125 208.62C9.89999 208.62 9.65999 208.935 9.86999 209.145C10.695 209.91 16.05 211.47 17.505 211.68C17.479 212.891 17.7012 214.095 18.1578 215.217C18.6144 216.339 19.2958 217.356 20.16 218.205C16.275 217.095 1.82999 212.955 1.42499 212.82C1.38966 212.806 1.35166 212.8 1.31377 212.803C1.27588 212.806 1.23906 212.817 1.20599 212.835C1.17293 212.854 1.14446 212.88 1.12266 212.911C1.10086 212.942 1.08628 212.978 1.07999 213.015C1.07999 213.315 1.07999 213.48 19.47 218.79C29.97 221.79 246.885 282.495 248.565 283.065C249.09 283.23 249.3 282.405 248.775 282.24C246.42 281.505 223.785 275.13 217.575 273.405C220.885 272.983 224.091 271.967 227.04 270.405C227.175 270.405 248.895 276.825 255.54 278.535C259.02 279.435 257.205 277.755 256.05 277.38ZM191.22 177.51C190.08 177.225 185.49 176.13 183.72 175.74C184.47 175.29 185.805 174.465 186.225 174.24C187.725 174.765 191.07 175.47 192.585 175.74C192.18 176.265 191.49 177.15 191.22 177.51ZM213.21 132.3C213.51 131.985 213.3 131.37 212.925 131.37C211.637 131.155 210.329 131.084 209.025 131.16C215.565 124.035 221.025 119.37 224.985 115.695C227.28 116.085 239.985 118.02 242.985 118.41C237.393 123.356 232.056 128.583 226.995 134.07C226.915 134.155 226.863 134.262 226.847 134.378C226.831 134.493 226.852 134.611 226.907 134.714C226.962 134.817 227.047 134.9 227.152 134.951C227.257 135.003 227.375 135.02 227.49 135C228.75 134.844 230.025 134.844 231.285 135C223.62 142.215 204.075 162.795 193.17 174.6C192.285 174.39 187.53 173.205 186.195 172.95C186.285 171.135 185.76 161.13 185.73 160.185C186.285 159.54 197.16 147.81 213.21 132.3ZM180 108.6C180.87 108.78 181.71 108.915 182.715 109.065C182.82 112.395 184.215 157.695 184.335 159.975C183.555 160.815 182.835 161.67 182.13 162.495C181.005 134.64 180.195 112.62 180 108.6ZM184.5 161.55C184.575 163.38 184.92 171.345 185.22 172.965C184.965 173.07 182.865 174.135 182.745 174.21C182.67 172.515 182.37 165.51 182.295 163.875C183 163.095 183.78 162.195 184.38 161.55H184.5ZM215.4 255.615C216.48 255.915 220.77 257.115 221.805 257.355C222.427 259.317 222.369 261.431 221.64 263.355C221.341 264.205 220.869 264.983 220.254 265.641C219.639 266.299 218.894 266.822 218.067 267.177C217.239 267.532 216.347 267.712 215.447 267.705C214.546 267.698 213.657 267.504 212.835 267.135C212.045 266.608 211.401 265.891 210.96 265.05C210.568 264.153 210.37 263.182 210.378 262.203C210.387 261.224 210.602 260.257 211.01 259.367C211.417 258.476 212.009 257.682 212.744 257.035C213.48 256.389 214.344 255.905 215.28 255.615H215.4ZM191.865 249.42C193.125 249.765 198.165 251.04 199.365 251.385C199.517 251.922 199.633 252.468 199.71 253.02C200.775 260.52 191.565 263.91 188.805 259.305C187.95 258.041 187.562 256.519 187.707 255C187.852 253.481 188.521 252.06 189.6 250.98C190.5 249.975 190.365 250.23 191.745 249.42H191.865ZM185.205 247.65C184.301 248.491 183.586 249.513 183.105 250.65C182.257 252.577 181.966 254.702 182.265 256.785C174.9 254.58 134.43 243.42 128.46 241.86C130.47 239.722 131.665 236.945 131.835 234.015L185.205 247.65ZM167.94 199.38C168.405 221.67 168.165 226.98 169.98 233.19C171.063 237.608 173.521 241.569 177 244.5C166.5 241.8 100.365 224.775 98.625 224.265C89.16 219.54 89.25 204.42 88.905 194.115C88.605 185.31 88.47 181.26 88.47 157.905C92.265 158.895 116.34 163.815 119.7 164.415C119.25 165.645 118.995 167.415 120.255 167.7C120.504 167.731 120.756 167.699 120.989 167.608C121.223 167.516 121.429 167.367 121.59 167.175C121.682 167.087 121.768 166.992 121.845 166.89C122.4 168.39 123.195 168.51 124.32 168.24C124.875 168.12 124.605 168.06 124.8 168.24C125.28 168.72 126.3 169.32 126.975 169.005C127.113 169.168 127.295 169.288 127.5 169.35C127.781 169.419 128.075 169.417 128.356 169.344C128.636 169.27 128.894 169.128 129.105 168.93C129.694 168.22 130.05 167.345 130.125 166.425C134.52 167.625 164.49 173.55 167.385 174.105C167.355 177.15 167.595 189 167.82 199.38H167.94ZM123.075 234.42C122.655 239.49 117.99 241.83 114.75 240C111.24 237.375 112.77 231.69 116.61 230.265C116.648 230.289 116.692 230.302 116.737 230.302C116.783 230.302 116.827 230.289 116.865 230.265C118.755 230.775 120.705 231.285 122.67 231.765C122.972 232.617 123.11 233.518 123.075 234.42ZM87.705 198.69C87.975 207.345 88.965 217.23 94.92 223.365C90.12 221.865 84.18 219.345 81.135 215.535C77.625 211.11 74.625 201.705 73.635 195.09C71.445 181.425 72.435 162.33 71.16 148.155C76.112 151.279 81.5599 153.536 87.27 154.83C87 156.405 87.705 198.54 87.705 198.69ZM96.495 224.685C103.155 226.725 103.005 226.425 102.99 226.575C103.072 227.011 103.127 227.452 103.155 227.895C103.244 229.196 103.034 230.499 102.54 231.705C100.725 235.53 95.76 236.1 93.87 233.31C93.4136 232.614 93.1106 231.828 92.9813 231.006C92.852 230.184 92.8993 229.343 93.12 228.54C93.7099 226.87 94.9179 225.491 96.495 224.685ZM128.595 161.685C127.564 162.165 126.757 163.025 126.345 164.085C125.893 165.315 125.857 166.658 126.24 167.91C124.965 167.625 124.635 166.41 124.74 165.165C124.968 163.742 125.716 162.454 126.84 161.55C127.11 161.415 126.84 161.04 126.6 161.22C125.495 161.718 124.611 162.604 124.113 163.709C123.616 164.814 123.54 166.063 123.9 167.22C122.595 167.775 122.4 166.665 122.4 165.24C122.503 164.312 122.879 163.435 123.48 162.72C123.847 162.173 124.274 161.67 124.755 161.22C124.792 161.181 124.814 161.131 124.818 161.077C124.823 161.024 124.809 160.97 124.78 160.925C124.751 160.881 124.707 160.847 124.656 160.829C124.606 160.812 124.551 160.812 124.5 160.83C123.608 161.275 122.856 161.956 122.327 162.801C121.797 163.645 121.511 164.619 121.5 165.615C121.5 165.765 121.65 165.36 120.84 166.44C120.03 167.52 120.15 165.495 120.315 165.03C120.954 162.985 122.232 161.197 123.96 159.93C125.895 158.895 129.87 159.54 131.91 160.395C132.658 160.712 133.302 161.231 133.77 161.895C134.027 162.369 134.224 162.873 134.355 163.395H133.605C133.553 163.291 133.465 163.209 133.358 163.165C133.25 163.121 133.13 163.118 133.02 163.155C132.09 163.275 131.211 163.652 130.483 164.242C129.754 164.833 129.205 165.615 128.895 166.5C128.829 167.022 128.677 167.528 128.445 168C128.235 168.345 127.77 168.57 127.53 168.225C127.072 167.216 126.921 166.095 127.095 165C127.316 163.869 127.933 162.853 128.835 162.135C128.891 162.103 128.931 162.051 128.948 161.989C128.965 161.927 128.957 161.861 128.925 161.805C128.893 161.75 128.841 161.709 128.779 161.692C128.717 161.675 128.651 161.683 128.595 161.715V161.685ZM120.09 163.335C117.21 162.57 92.805 157.575 88.83 156.765C89.4327 156.357 90.0089 155.911 90.555 155.43C93.765 155.925 94.635 156.135 107.31 158.67C113.73 159.96 119.79 161.265 121.185 161.475C120.746 162.059 120.378 162.694 120.09 163.365V163.335ZM167.055 171V173.085C163.155 172.005 134.79 166.335 130.38 165.585C131.064 164.721 132.05 164.147 133.14 163.98C134.025 164.415 165.63 171 167.055 171ZM98.235 136.5C99.9451 139.744 102.435 142.512 105.48 144.555C105.583 144.616 105.704 144.639 105.822 144.62C105.939 144.6 106.047 144.54 106.125 144.45C108.757 142.214 111.019 139.576 112.83 136.635C114.002 137.065 115.229 137.327 116.475 137.415C113.475 142.89 107.07 148.89 105.87 150.225C104.082 148.576 102.403 146.813 100.845 144.945C98.4663 142.13 96.3288 139.119 94.455 135.945C95.7 136.11 96.975 136.32 98.235 136.5ZM95.235 128.13C95.612 128.136 95.9857 128.059 96.33 127.905C96.6817 129.611 97.628 131.137 99 132.21C99.8077 132.888 100.763 133.365 101.79 133.605V134.625C100.219 134.135 98.7856 133.282 97.605 132.135C96.5288 130.978 95.7153 129.601 95.22 128.1L95.235 128.13ZM111 134.205C110.778 133.892 110.533 133.596 110.265 133.32V132.72C110.445 132.72 110.655 132.72 110.85 132.6C111.903 132.228 112.863 131.634 113.666 130.857C114.468 130.081 115.094 129.14 115.5 128.1C116.098 129.163 116.935 130.072 117.945 130.755C121.035 132.81 124.44 131.46 127.11 133.005C129.03 134.13 129.93 136.11 132.855 137.175C133.395 138.634 134.467 139.834 135.855 140.535C137.04 141.21 137.355 140.97 136.98 141.105C131.64 142.26 127.725 137.19 122.145 136.605C118.68 136.215 113.88 137.16 111 134.205ZM116.01 126.705L116.145 126.075C116.712 127.175 117.581 128.091 118.65 128.715C121.005 130.215 122.94 129.33 125.445 129.735C127.531 130.221 129.344 131.502 130.5 133.305C131.335 134.601 132.514 135.64 133.905 136.305C129.705 134.97 129.63 131.805 125.385 131.145C122.235 130.605 119.64 131.415 117.015 128.49C116.572 127.944 116.209 127.338 115.935 126.69L116.01 126.705ZM133.23 134.505C131.055 132.87 131.235 130.815 126.84 128.985C124.26 128.25 122.07 128.985 120.165 128.28C119.218 127.96 118.364 127.414 117.675 126.69C117.165 126.13 116.731 125.505 116.385 124.83C116.394 124.781 116.394 124.73 116.385 124.68C116.46 123.738 116.414 122.791 116.25 121.86C117.208 122.863 118.342 123.682 119.595 124.275C121.866 125.325 124.397 125.68 126.87 125.295C128.201 125.117 129.551 125.143 130.875 125.37C135.375 126.255 135.27 130.23 138.735 132.09C140.043 132.839 141.57 133.109 143.055 132.855C141.604 133.79 139.977 134.418 138.275 134.699C136.572 134.981 134.829 134.909 133.155 134.49L133.23 134.505ZM145.5 127.5C145.157 127.883 144.781 128.235 144.375 128.55C143.603 129.195 142.7 129.663 141.728 129.922C140.757 130.182 139.74 130.225 138.75 130.05C136.635 129.75 136.485 127.98 134.79 126.36C129.36 121.185 123.84 127.185 117.645 122.01C117.167 121.648 116.73 121.236 116.34 120.78C115.695 120.12 115.695 120.18 115.47 119.415C115.137 118.246 114.731 117.099 114.255 115.98C117.765 117.93 120.93 122.13 126.795 121.2C128.88 120.885 132.015 119.7 135.045 120.495C136.245 120.708 137.371 121.224 138.315 121.995C139.395 122.91 139.71 124.005 140.595 124.995C141.201 125.723 141.948 126.319 142.791 126.75C143.634 127.181 144.556 127.436 145.5 127.5ZM95.475 108.135C96.5727 107.515 97.7628 107.074 99 106.83C99.2254 106.557 99.4711 106.301 99.735 106.065C103.86 103.29 109.815 104.565 113.46 107.565C114.822 108.957 116.378 110.144 118.08 111.09C121.335 112.44 125.67 111.78 130.2 112.95C132.013 113.268 133.739 113.967 135.262 115.001C136.785 116.036 138.071 117.382 139.035 118.95C140.115 120.96 141.135 124.245 143.775 125.22C141.09 124.935 140.775 122.31 139.02 120.855C138.049 120.067 136.917 119.499 135.705 119.19C133.024 118.663 130.253 118.823 127.65 119.655C126.211 119.979 124.718 119.983 123.277 119.667C121.836 119.351 120.481 118.722 119.31 117.825C117.585 116.371 115.679 115.146 113.64 114.18C114.646 113.887 115.613 113.474 116.52 112.95C116.591 112.906 116.645 112.838 116.672 112.759C116.698 112.679 116.696 112.593 116.666 112.514C116.636 112.436 116.579 112.371 116.506 112.33C116.433 112.289 116.348 112.275 116.265 112.29C114.765 112.455 107.565 115.95 101.55 111.615C100.544 110.862 99.6371 109.985 98.85 109.005C98.8132 108.967 98.7651 108.943 98.7129 108.935C98.6607 108.927 98.6075 108.937 98.5614 108.963C98.5153 108.988 98.4789 109.028 98.4579 109.077C98.4369 109.125 98.4323 109.179 98.445 109.23C98.7951 110.233 99.3937 111.131 100.185 111.84C100.086 112.039 100.015 112.252 99.975 112.47C99.03 116.655 96.555 119.97 95.115 120.69C94.77 119.835 93.945 119.01 93.06 119.19C92.97 118.29 92.76 117.36 92.7 116.355C92.355 113.79 92.85 110.01 95.475 108.135ZM92.475 121.635C92.475 121.14 92.805 120.345 93.36 120.42C93.565 120.483 93.7541 120.59 93.9145 120.732C94.0749 120.874 94.2029 121.049 94.29 121.245C94.5153 121.867 94.7809 122.473 95.085 123.06C95.28 123.255 95.58 123.15 95.58 123.06C95.6203 122.654 95.5691 122.244 95.43 121.86C96.285 121.635 98.43 118.95 98.43 118.86C99.0432 117.921 99.5465 116.914 99.93 115.86C100.357 114.902 100.665 113.894 100.845 112.86C101.315 113.187 101.818 113.463 102.345 113.685C105.119 115.112 108.31 115.5 111.345 114.78C111.894 114.9 112.435 115.056 112.965 115.245C113.655 117.885 114.87 120.36 114.96 123.255C115.095 126.915 113.145 131.205 108.585 131.94C108.18 131.94 108.21 132.495 108.585 132.615H109.095C109.009 133.653 109.009 134.697 109.095 135.735C109.886 136.034 110.725 136.186 111.57 136.185C110.67 137.28 106.635 142.02 105.42 143.145C102.985 141.376 100.913 139.156 99.315 136.605C100.239 136.829 101.184 136.955 102.135 136.98C102.172 136.958 102.203 136.927 102.225 136.89C102.4 135.838 102.511 134.776 102.555 133.71C103.188 133.771 103.826 133.699 104.43 133.5C104.549 133.468 104.651 133.39 104.713 133.284C104.775 133.177 104.792 133.05 104.76 132.93C104.728 132.811 104.65 132.709 104.543 132.647C104.436 132.585 104.309 132.568 104.19 132.6C103.088 132.815 101.948 132.699 100.912 132.266C99.8764 131.834 98.9919 131.105 98.37 130.17C97.53 128.91 96.87 127.935 96.87 127.665L97.035 127.5C97.365 127.2 96.78 126.405 96.375 126.81C94.17 128.445 92.235 124.38 92.505 121.665L92.475 121.635ZM88.845 96.1352C88.695 101.175 89.535 129.975 89.67 133.935L87.915 133.5C87.915 133.275 86.76 95.7602 86.76 95.7302L88.845 96.1352ZM34.695 108.285C35.01 107.97 34.785 107.355 34.425 107.355C33.3178 107.148 32.1894 107.078 31.065 107.145C37.38 100.335 41.655 96.6452 45.405 93.1652C46.545 93.3152 53.115 94.1402 54.525 94.2902C54.3641 96.0203 54.324 97.7595 54.405 99.4952C52.32 101.58 51.705 101.955 51.48 102.195C51.255 102.435 51.33 102.465 51.165 103.035C51.345 102.09 50.82 100.845 49.83 100.845C48.84 100.845 48.615 101.58 48.33 102.42C48.225 102.735 47.445 104.4 47.16 104.205C46.2926 103.392 45.6692 102.353 45.36 101.205C45.135 100.545 44.76 98.0702 43.695 98.2952C43.5538 98.3318 43.4232 98.4012 43.3138 98.4976C43.2044 98.594 43.1191 98.7148 43.065 98.8502C42.39 100.215 42.96 101.55 43.065 102.885C42.4388 101.71 41.6842 100.609 40.815 99.6002C40.6851 99.4731 40.5296 99.3753 40.3589 99.3132C40.1882 99.2511 40.0061 99.2262 39.825 99.2402C39.105 99.4052 39.12 100.11 39.345 100.89C39.7438 102.014 40.246 103.099 40.845 104.13C39.9368 103.243 38.9303 102.463 37.845 101.805C36.705 101.385 35.52 102.18 36.81 103.89C37.5841 104.947 38.486 105.904 39.495 106.74C37.38 106.395 37.59 106.41 37.44 106.38C36.285 106.17 36.075 107.34 36.825 108.09C38.175 109.83 41.325 110.655 42.975 112.38C42.42 112.755 42.48 113.565 42.795 113.715C42.96 114.12 43.17 114.615 43.41 115.215C36.345 121.98 28.71 129.855 21.045 138.525C19.545 138.165 10.89 136.29 8.33999 135.735C15.27 128.01 21 121.5 34.725 108.255L34.695 108.285ZM39.945 105.705C39.945 105.705 39.48 105.21 38.985 104.715C38.4152 104.183 37.9116 103.583 37.485 102.93C36.945 101.865 37.95 102.585 38.265 102.93C39.315 103.77 39.975 104.835 41.385 105.36C41.595 105.45 41.835 105.36 41.985 105.045C42.0571 104.703 42.0514 104.348 41.9683 104.008C41.8852 103.668 41.7269 103.351 41.505 103.08C40.98 102.18 39.885 100.455 40.32 100.08C40.755 99.7052 41.82 101.985 42.345 102.84C42.5946 103.359 42.9979 103.788 43.5 104.07C43.5736 104.108 43.6559 104.125 43.7383 104.12C43.8208 104.115 43.9006 104.089 43.9693 104.043C44.0381 103.997 44.0934 103.934 44.1295 103.859C44.1657 103.785 44.1814 103.703 44.175 103.62C44.0398 102.36 43.9697 101.093 43.965 99.8252C44.1 98.8352 44.175 99.1202 44.445 99.8252C44.715 100.53 44.715 101.085 45.045 101.94C45.75 103.755 47.325 106.05 48.555 104.535C49.785 103.02 49.83 101.535 50.28 101.535C50.73 101.535 50.61 101.985 50.61 102.315C50.5436 102.973 50.3114 103.602 49.935 104.145C48.435 106.815 49.2 108.315 48.915 110.535C48.7227 110.648 48.5157 110.734 48.3 110.79C47.0502 111.424 45.7382 111.927 44.385 112.29C42.915 110.355 40.5 109.5 39 108.54C38.13 108.015 37.305 107.58 37.425 107.04C37.545 106.5 39.435 107.4 39.855 107.43C40.0547 107.448 40.2546 107.399 40.4231 107.29C40.5916 107.181 40.719 107.02 40.785 106.83C40.785 106.5 40.275 105.975 39.975 105.675L39.945 105.705ZM49.68 111.435C51.0498 113.269 52.554 114.999 54.18 116.61C52.0722 118.223 49.6735 119.415 47.115 120.12C46.1215 117.882 44.9633 115.722 43.65 113.655C45.7615 113.18 47.7997 112.423 49.71 111.405L49.68 111.435ZM19.05 140.73C17.175 140.28 9.31499 138.33 6.22499 137.73C6.52499 137.44 6.86999 137.095 7.25999 136.695L19.995 139.695C19.71 139.92 19.26 140.46 19.05 140.73ZM54.06 148.23L20.235 140.88L21.18 139.77L54.18 146.655L54.06 148.23ZM51.81 128.13C50.164 125.825 48.714 123.387 47.475 120.84C50.168 120.165 52.6813 118.911 54.84 117.165C64.245 126.51 80.625 133.245 93.09 135.6C94.1751 137.824 95.471 139.939 96.96 141.915C98.9697 144.715 101.207 147.344 103.65 149.775C104.22 150.345 105.27 151.53 105.765 151.275C107.614 149.669 109.362 147.951 111 146.13C113.539 143.566 115.705 140.657 117.435 137.49C123.105 137.49 124.395 138.06 127.935 139.89C131.475 141.72 137.115 142.65 139.74 153.12C140.856 156.839 141.362 160.714 141.24 164.595L135.63 163.44C135.533 162.648 135.243 161.892 134.785 161.238C134.327 160.584 133.716 160.053 133.005 159.69C131.232 158.938 129.346 158.487 127.425 158.355C126.546 158.248 125.654 158.326 124.806 158.584C123.959 158.843 123.175 159.276 122.505 159.855C122.22 160.14 122.01 160.425 121.725 160.71C119.97 160.245 91.5 154.2 90.915 154.215C87.5032 153.711 84.1578 152.831 80.94 151.59C67.8 146.82 59.13 138.255 51.81 128.13ZM61.59 211.035C57.255 205.365 56.895 197.655 56.7 190.785C56.7 190.785 55.95 137.67 55.875 135.675C60.0595 140.39 64.941 144.437 70.35 147.675C71.04 171.555 69.99 189.03 74.145 203.085C74.892 206.268 75.9678 209.365 77.355 212.325C74.565 214.275 71.355 214.95 66.66 214.59C64.5846 214.082 62.7754 212.813 61.59 211.035ZM54.78 213.69C55.83 213.855 55.11 213.78 57.675 214.275C64.155 215.52 73.005 217.275 78.075 213.435C80.91 218.49 84.9 220.77 90.765 222.87C89.7335 223.837 88.9293 225.021 88.4106 226.336C87.8918 227.651 87.6713 229.065 87.765 230.475C83.385 229.08 61.68 222.885 52.08 220.59C53.6907 218.636 54.6365 216.219 54.78 213.69ZM41.28 211.02L46.5 212.055C46.9675 213.519 46.9675 215.092 46.5 216.555C46.2943 217.192 45.9572 217.779 45.5105 218.278C45.0638 218.777 44.5174 219.176 43.9066 219.45C43.2959 219.724 42.6344 219.868 41.9649 219.87C41.2954 219.873 40.6328 219.735 40.02 219.465C39.4865 219.077 39.0585 218.561 38.775 217.965C38.277 216.703 38.255 215.302 38.7131 214.024C39.1712 212.746 40.0781 211.679 41.265 211.02H41.28ZM23.28 207.3L23.58 207.075L29.13 208.41C29.13 209.205 29.43 209.835 29.43 210.795C29.43 215.055 24.78 217.44 22.08 215.01C21.5142 214.47 21.099 213.792 20.8755 213.042C20.6519 212.292 20.6276 211.497 20.805 210.735C20.9432 210.013 21.2394 209.331 21.6725 208.737C22.1056 208.143 22.6648 207.652 23.31 207.3H23.28ZM21.24 217.575C19.6658 216.481 18.578 214.819 18.2058 212.938C17.8336 211.058 18.2062 209.106 19.245 207.495C20.22 206.22 20.355 206.505 20.415 206.265L21.42 206.52C21.043 206.787 20.7048 207.105 20.415 207.465C16.905 211.545 20.085 218.13 25.5 217.29C26.9324 217.051 28.2374 216.322 29.1922 215.228C30.147 214.134 30.6923 212.742 30.735 211.29C30.8171 210.452 30.7356 209.607 30.495 208.8L33.165 209.37C33.5787 211.404 33.1834 213.52 32.0632 215.267C30.943 217.015 29.186 218.257 27.165 218.73C25.1247 219.094 23.0222 218.682 21.27 217.575H21.24ZM27.36 219.975C28.5001 219.706 29.6106 219.324 30.675 218.835C31.6854 218.449 32.647 217.946 33.54 217.335C33.7899 218.464 34.2707 219.53 34.9522 220.464C35.6337 221.399 36.5011 222.182 37.5 222.765C33.57 221.67 30.15 220.725 27.39 219.975H27.36ZM35.7 211.5C36.0071 211.023 36.3587 210.576 36.75 210.165C37.425 210.285 38.04 210.45 38.64 210.57C38.2895 210.815 37.9849 211.12 37.74 211.47C36.7615 212.63 36.2449 214.109 36.2892 215.626C36.3335 217.143 36.9355 218.59 37.98 219.69C41.94 223.77 49.71 219.6 47.79 212.46L50.04 212.895C51.015 218.895 46.575 223.89 40.83 222.96C39.5993 222.764 38.4368 222.264 37.4477 221.506C36.4586 220.748 35.674 219.755 35.1648 218.618C34.6556 217.481 34.4379 216.234 34.5314 214.991C34.6248 213.749 35.0264 212.549 35.7 211.5ZM41.865 224.07C45.3078 224.089 48.6645 222.994 51.435 220.95C63.09 224.625 86.985 231.045 87.885 231.27C88.0778 232.597 88.5309 233.872 89.2182 235.022C89.9055 236.173 90.8135 237.177 91.89 237.975C74.61 233.31 57.915 228.555 41.865 224.01V224.07ZM92.565 236.955C91.522 236.167 90.6658 235.158 90.0571 234C89.4485 232.843 89.1026 231.566 89.0438 230.26C88.9851 228.953 89.2151 227.65 89.7174 226.443C90.2197 225.236 90.982 224.154 91.95 223.275L94.275 224.025C92.9378 224.924 91.9398 226.244 91.44 227.775C91.0885 228.793 90.9929 229.881 91.1617 230.944C91.3305 232.007 91.7585 233.012 92.4079 233.871C93.0573 234.729 93.9081 235.414 94.8851 235.866C95.8621 236.318 96.9353 236.522 98.01 236.46C99.0795 236.384 100.115 236.049 101.026 235.485C101.938 234.92 102.699 234.143 103.245 233.22C104.413 231.341 104.805 229.083 104.34 226.92L107.34 227.7C107.629 230.158 107.027 232.638 105.645 234.69C104.941 235.706 104.04 236.57 102.997 237.232C101.953 237.895 100.788 238.342 99.5693 238.547C98.3507 238.753 97.1032 238.712 95.9003 238.429C94.6974 238.145 93.5634 237.624 92.565 236.895V236.955ZM98.76 239.955C101.873 239.635 104.889 238.685 107.625 237.165C108.024 239.696 109.37 241.98 111.39 243.555C107.235 242.34 102.99 241.11 98.76 240V239.955ZM108.63 236.385C108.526 234.989 108.742 233.588 109.262 232.288C109.782 230.988 110.592 229.824 111.63 228.885C112.425 229.08 112.905 229.26 114.015 229.5C113.256 229.945 112.597 230.543 112.081 231.255C111.564 231.968 111.201 232.78 111.015 233.64C109.95 238.335 113.385 242.64 118.14 241.98C119.767 241.645 121.244 240.796 122.353 239.56C123.463 238.323 124.147 236.764 124.305 235.11C124.463 234.151 124.386 233.168 124.08 232.245L126.675 232.935C127.515 239.34 123.45 243.435 119.175 244.17C117.964 244.413 116.715 244.399 115.509 244.13C114.303 243.861 113.167 243.342 112.173 242.608C111.18 241.873 110.352 240.938 109.741 239.864C109.131 238.79 108.752 237.6 108.63 236.37V236.385ZM118.425 245.385C121.686 245.161 124.841 244.13 127.605 242.385C141.315 246.645 179.34 256.995 182.22 257.76C182.676 260.001 183.8 262.051 185.445 263.64C185.775 263.938 186.12 264.219 186.48 264.48C172.5 260.43 127.845 248.04 118.5 245.445L118.425 245.385ZM187.425 263.28C186.271 262.398 185.319 261.279 184.633 259.999C183.947 258.718 183.544 257.305 183.45 255.855C183.356 254.406 183.574 252.953 184.089 251.594C184.604 250.236 185.404 249.004 186.435 247.98L189.345 248.73C188.447 249.347 187.687 250.142 187.111 251.066C186.536 251.99 186.157 253.024 185.999 254.101C185.842 255.178 185.908 256.277 186.195 257.327C186.481 258.377 186.982 259.357 187.665 260.205C190.785 263.985 196.86 263.31 199.665 258.945C200.337 257.876 200.781 256.679 200.97 255.429C201.158 254.18 201.087 252.906 200.76 251.685L204.21 252.555C204.685 255.372 204.039 258.262 202.41 260.608C200.781 262.954 198.299 264.57 195.495 265.11C194.088 265.37 192.643 265.348 191.245 265.044C189.846 264.74 188.522 264.161 187.35 263.34L187.425 263.28ZM194.58 266.55C198.12 266.164 201.544 265.062 204.645 263.31C205.04 266.186 206.555 268.79 208.86 270.555C203.895 269.28 199.155 267.93 194.505 266.61L194.58 266.55ZM226.71 263.01C226.332 264.334 225.766 265.597 225.03 266.76C224.252 267.953 223.243 268.979 222.064 269.778C220.884 270.576 219.557 271.132 218.16 271.411C216.763 271.69 215.325 271.688 213.929 271.405C212.533 271.121 211.207 270.562 210.03 269.76C208.223 268.465 206.886 266.618 206.218 264.498C205.549 262.377 205.587 260.097 206.325 258C206.891 256.365 207.936 254.938 209.325 253.905L212.325 254.715C207.9 256.845 207.255 263.4 210.465 266.835C213.675 270.27 219.765 269.625 222.465 264.615C223.503 262.472 223.793 260.043 223.29 257.715C224.355 257.985 225.435 258.285 226.515 258.63C226.894 260.082 226.935 261.601 226.635 263.07L226.71 263.01Z"/>
</svg>
