<?xml version="1.0" encoding="UTF-8" standalone="no"?>
<svg
   xmlns:dc="http://purl.org/dc/elements/1.1/"
   xmlns:cc="http://creativecommons.org/ns#"
   xmlns:rdf="http://www.w3.org/1999/02/22-rdf-syntax-ns#"
   xmlns:svg="http://www.w3.org/2000/svg"
   xmlns="http://www.w3.org/2000/svg"
   xmlns:sodipodi="http://sodipodi.sourceforge.net/DTD/sodipodi-0.dtd"
   xmlns:inkscape="http://www.inkscape.org/namespaces/inkscape"
   version="1.1"
   id="svg2"
   xml:space="preserve"
   width="1263.856"
   height="331.25601"
   viewBox="0 0 1263.856 331.25601"
   sodipodi:docname="20J11212E_COVEAlogoGrFRISE3m_RGB.ai"><metadata
     id="metadata8"><rdf:RDF><cc:Work
         rdf:about=""><dc:format>image/svg+xml</dc:format><dc:type
           rdf:resource="http://purl.org/dc/dcmitype/StillImage" /></cc:Work></rdf:RDF></metadata><defs
     id="defs6"><clipPath
       clipPathUnits="userSpaceOnUse"
       id="clipPath22"><path
         d="M 0,248.442 H 947.892 V 0 H 0 Z"
         id="path20" /></clipPath><radialGradient
       fx="0"
       fy="0"
       cx="0"
       cy="0"
       r="1"
       gradientUnits="userSpaceOnUse"
       gradientTransform="matrix(52.472446,0,0,-52.472446,536.97955,150.87581)"
       spreadMethod="pad"
       id="radialGradient96"><stop
         style="stop-opacity:1;stop-color:#b2c3e5"
         offset="0"
         id="stop86" /><stop
         style="stop-opacity:1;stop-color:#b2c3e5"
         offset="0.03"
         id="stop88" /><stop
         style="stop-opacity:1;stop-color:#005ca8"
         offset="0.22506769"
         id="stop90" /><stop
         style="stop-opacity:1;stop-color:#005ca8"
         offset="0.5"
         id="stop92" /><stop
         style="stop-opacity:1;stop-color:#003875"
         offset="1"
         id="stop94" /></radialGradient><clipPath
       clipPathUnits="userSpaceOnUse"
       id="clipPath106"><path
         d="M 0,248.442 H 947.892 V 0 H 0 Z"
         id="path104" /></clipPath><radialGradient
       fx="0"
       fy="0"
       cx="0"
       cy="0"
       r="1"
       gradientUnits="userSpaceOnUse"
       gradientTransform="matrix(52.472622,0,0,-52.472622,631.92926,150.87581)"
       spreadMethod="pad"
       id="radialGradient134"><stop
         style="stop-opacity:1;stop-color:#b2d6bd"
         offset="0"
         id="stop124" /><stop
         style="stop-opacity:1;stop-color:#b2d6bd"
         offset="0.03"
         id="stop126" /><stop
         style="stop-opacity:1;stop-color:#008d5a"
         offset="0.22506769"
         id="stop128" /><stop
         style="stop-opacity:1;stop-color:#008d5a"
         offset="0.5"
         id="stop130" /><stop
         style="stop-opacity:1;stop-color:#00814d"
         offset="1"
         id="stop132" /></radialGradient><clipPath
       clipPathUnits="userSpaceOnUse"
       id="clipPath144"><path
         d="M 0,248.442 H 947.892 V 0 H 0 Z"
         id="path142" /></clipPath><radialGradient
       fx="0"
       fy="0"
       cx="0"
       cy="0"
       r="1"
       gradientUnits="userSpaceOnUse"
       gradientTransform="matrix(52.472618,0,0,-52.472618,726.87781,150.87581)"
       spreadMethod="pad"
       id="radialGradient172"><stop
         style="stop-opacity:1;stop-color:#ffe8c0"
         offset="0"
         id="stop162" /><stop
         style="stop-opacity:1;stop-color:#ffe8c0"
         offset="0.03"
         id="stop164" /><stop
         style="stop-opacity:1;stop-color:#f6a608"
         offset="0.16893463"
         id="stop166" /><stop
         style="stop-opacity:1;stop-color:#f6a608"
         offset="0.3"
         id="stop168" /><stop
         style="stop-opacity:1;stop-color:#ed7218"
         offset="1"
         id="stop170" /></radialGradient><clipPath
       clipPathUnits="userSpaceOnUse"
       id="clipPath182"><path
         d="M 0,248.442 H 947.892 V 0 H 0 Z"
         id="path180" /></clipPath></defs><sodipodi:namedview
     pagecolor="#ffffff"
     bordercolor="#666666"
     borderopacity="1"
     objecttolerance="10"
     gridtolerance="10"
     guidetolerance="10"
     inkscape:pageopacity="0"
     inkscape:pageshadow="2"
     inkscape:window-width="640"
     inkscape:window-height="480"
     id="namedview4" /><g
     id="g10"
     inkscape:groupmode="layer"
     inkscape:label="20J11212E_COVEAlogoGrFRISE3m_RGB"
     transform="matrix(1.3333333,0,0,-1.3333333,0,331.256)"><path
       d="m 289.181,78.202 h 138.062 v 99.119 H 289.181 Z"
       style="fill:#019dad;fill-opacity:1;fill-rule:nonzero;stroke:none"
       id="path12" /><path
       d="M 289.181,71.121 H 427.24 v 7.078 H 289.181 Z"
       style="fill:#ed1c24;fill-opacity:1;fill-rule:nonzero;stroke:none"
       id="path14" /><g
       id="g16"><g
         id="g18"
         clip-path="url(#clipPath22)"><g
           id="g24"
           transform="translate(381.4209,106.6587)"><path
             d="m 0,0 h 0.153 l 0.72,-8.687 H -6.068 C -3.807,-5.034 -1.696,-1.847 0,0 m -24.724,0 h 0.155 l 0.718,-8.687 h -6.94 c 2.265,3.653 4.368,6.84 6.067,8.687 m 50.116,3.238 h 8.171 l 1.489,3.703 H 22.153 c -3.037,0 -4.371,-0.773 -5.502,-3.957 L 9.864,-15.675 H 9.717 L 7.349,6.941 H 2.364 C 1.538,6.941 0.973,6.837 0.361,6.322 -3.088,3.442 -10.537,-7.249 -14.855,-15.675 h -0.158 l -2.365,22.616 h -4.983 c -0.817,0 -1.385,-0.104 -2.001,-0.619 -3.449,-2.88 -10.898,-13.571 -15.216,-21.997 h -0.154 l 0.565,22.616 h -6.168 c -1.234,0 -1.542,-0.208 -2.154,-0.923 -2.319,-2.726 -6.379,-9.149 -9.049,-14.598 h -0.104 l 0.413,15.521 h -4.527 c -0.615,0 -1.434,-0.412 -2.157,-0.923 -5.034,-3.596 -11.202,-12.955 -16.344,-23.853 h 5.345 c 3.191,6.636 6.991,13.159 9.872,16.4 h 0.146 l -0.3,-13.316 c -0.054,-2.724 1.387,-3.084 2.358,-3.084 h 5.145 c 3.288,6.733 7.041,13.105 9.249,16.089 h 0.103 l -0.204,-13.521 c 0,-1.485 1.185,-2.568 3.034,-2.568 h 8.53 c 1.077,1.956 2.158,4.01 3.291,5.967 h 9.095 l 0.204,-2.626 c 0.211,-2.211 1.288,-3.341 3.804,-3.341 h 8.325 c 1.081,1.956 2.164,4.01 3.295,5.967 h 9.092 l 0.207,-2.626 c 0.204,-2.211 1.288,-3.341 3.801,-3.341 h 12.289 l 4.165,11.102 h 5.86 c 1.331,0 2.254,0.515 2.666,1.645 l 0.672,1.746 h -7.918 z"
             style="fill:#ffffff;fill-opacity:1;fill-rule:nonzero;stroke:none"
             id="path26" /></g><g
           id="g28"
           transform="translate(405.5771,140.3823)"><path
             d="M 0,0 C 0,0.873 0.713,1.585 1.583,1.585 2.462,1.585 3.168,0.873 3.168,0 3.168,-0.876 2.462,-1.585 1.583,-1.585 0.713,-1.585 0,-0.876 0,0"
             style="fill:#ed1c24;fill-opacity:1;fill-rule:nonzero;stroke:none"
             id="path30" /></g><g
           id="g32"
           transform="translate(412.6748,145.0063)"><path
             d="m 0,0 c -7.649,13.444 -28.773,12.627 -28.987,12.618 -0.017,0 -0.575,0.023 -1.582,0.009 -11.959,0 -22.663,-2.485 -32.093,-6.355 -0.013,-0.003 -0.026,-0.003 -0.04,-0.01 -1.087,-0.462 -1.826,-0.334 -2.138,-0.234 -0.669,0.251 -1.117,0.538 -1.117,0.538 L -65.96,6.563 c -9.747,5.764 -18.384,5.416 -18.384,5.416 0,0 -3.529,-0.067 -4.596,-0.321 -1.038,-0.248 -1.074,-0.546 -0.024,-0.502 1.92,0.083 5.068,0.03 11.983,-2.536 l 3.037,-1.388 c 1.619,-0.893 2.772,-1.796 3.539,-2.492 0.254,-0.251 0.414,-0.491 0.521,-0.719 0.073,-0.211 0.241,-0.947 -0.809,-1.516 -0.027,-0.009 -0.04,-0.023 -0.064,-0.036 -7.924,-4.208 -14.764,-9.293 -20.508,-14.434 -7.024,-6.028 -13.975,-13.654 -20.167,-23.368 -1.208,-1.856 -1.823,-2.951 -1.823,-2.951 0,0 -2.874,-4.826 -1.723,-4.522 1.161,0.311 3.255,3.84 3.255,3.84 9.088,12.577 18.952,21.773 28.56,28.5 9.566,6.486 19.066,10.951 26.164,13.353 16.083,5.442 27.895,4.95 28.012,4.947 0.2,0.003 17.785,0.643 27.074,-8.122 0.02,-0.026 2.542,-2.528 3,-3.221 C 1.134,-3.583 1.288,-3.81 1.492,-3.679 1.927,-3.408 0.08,-0.14 0,0"
             style="fill:#ffffff;fill-opacity:1;fill-rule:nonzero;stroke:none"
             id="path34" /></g><path
           d="m 801.337,71.505 h 105.446 v 105.43 H 801.337 Z"
           style="fill:#ffffff;fill-opacity:1;fill-rule:nonzero;stroke:none"
           id="path36" /><g
           id="g38"
           transform="translate(906.7822,71.5068)"><path
             d="m 0,0 h -105.446 v 62.8 c 0,0 70.472,-5.742 105.446,13.866 z"
             style="fill:#164194;fill-opacity:1;fill-rule:nonzero;stroke:none"
             id="path40" /></g><g
           id="g42"
           transform="translate(876.3115,89.4424)"><path
             d="M 0,0 C 1.629,0.205 2.622,0.54 3.023,1.006 3.414,1.48 3.609,2.715 3.609,4.722 v 20.214 c 0,1.662 -0.218,2.751 -0.666,3.255 C 2.51,28.708 1.523,29.016 0,29.131 v 0.881 h 21.886 l 0.185,-6.623 h -1.145 c -0.288,2.107 -0.815,3.461 -1.607,4.024 -0.778,0.56 -2.338,0.844 -4.652,0.844 H 9.054 C 8.49,28.257 8.159,28.155 7.997,27.926 7.838,27.721 7.769,27.31 7.769,26.687 V 16.283 h 5.066 c 1.752,0 2.875,0.126 3.354,0.619 0.485,0.516 0.872,1.536 1.173,3.083 h 0.96 v -9.272 h -0.96 c -0.307,1.546 -0.712,2.579 -1.182,3.086 -0.493,0.49 -1.603,0.616 -3.345,0.616 H 7.769 V 4.206 C 7.769,2.497 7.997,1.397 8.457,0.927 8.928,0.447 9.925,0.139 11.471,0 V -0.871 H 0 Z"
             style="fill:#ffffff;fill-opacity:1;fill-rule:nonzero;stroke:none"
             id="path44" /></g><g
           id="g46"
           transform="translate(835.498,105.0498)"><path
             d="m 0,0 h -7.574 v -0.881 c 1.5,-0.102 2.484,-0.377 2.934,-0.827 0.448,-0.448 0.662,-1.567 0.662,-3.369 v -7.404 c 0,-0.514 -0.112,-0.904 -0.354,-1.166 -0.252,-0.265 -0.848,-0.576 -1.835,-0.94 -0.596,-0.219 -1.225,-0.391 -1.9,-0.494 -0.666,-0.103 -1.248,-0.159 -1.743,-0.159 -2.933,0 -5.397,1.202 -7.39,3.62 -1.994,2.417 -2.991,5.765 -2.991,10.06 0,5.216 0.997,8.952 3.001,11.22 1.993,2.258 4.321,3.404 6.957,3.404 2.599,0 4.696,-0.96 6.325,-2.901 0.907,-1.109 1.765,-2.782 2.599,-5.03 h 0.951 l -0.318,9.799 h -0.918 c -0.172,-0.494 -0.39,-0.858 -0.641,-1.123 -0.239,-0.251 -0.663,-0.391 -1.249,-0.391 -0.229,0 -1.113,0.266 -2.636,0.755 -1.547,0.507 -3.107,0.759 -4.699,0.759 -4.388,0 -7.918,-1.709 -10.601,-5.133 -2.403,-3.106 -3.619,-6.819 -3.619,-11.163 0,-4.938 1.523,-8.879 4.55,-11.816 2.761,-2.656 6.139,-3.974 10.153,-3.974 2.176,0 4.444,0.444 6.796,1.361 2.357,0.918 3.54,1.64 3.54,2.189 z"
             style="fill:#ffffff;fill-opacity:1;fill-rule:nonzero;stroke:none"
             id="path48" /></g><g
           id="g50"
           transform="translate(844.3447,114.0459)"><path
             d="m 0,0 10.375,-25.476 h 0.576 L 21.482,1.099 v -26.575 h 7.756 v 0.871 c -1.51,0.162 -2.497,0.47 -2.944,0.95 -0.438,0.484 -0.652,1.573 -0.652,3.269 v 20.73 c 0,1.659 0.214,2.739 0.652,3.242 0.447,0.517 1.434,0.825 2.944,0.941 V 5.408 H 21.102 L 11.855,-17.889 2.385,5.408 H -5.709 V 4.527 C -4.047,4.434 -2.99,4.146 -2.523,3.633 -2.053,3.116 -1.812,2.03 -1.812,0.344 v -18.932 c 0,-2.451 -0.251,-4.023 -0.721,-4.699 -0.481,-0.672 -1.58,-1.109 -3.266,-1.318 v -0.871 H 0 Z"
             style="fill:#ffffff;fill-opacity:1;fill-rule:nonzero;stroke:none"
             id="path52" /></g><g
           id="g54"
           transform="translate(868.0605,147.0708)"><path
             d="m 0,0 c -4.63,-0.573 -10.577,0.801 -13.65,1.848 -0.242,0.079 -0.067,0.126 -0.16,-0.023 -0.195,-0.288 -0.377,-1.024 -0.503,-1.424 0.057,0.185 1.203,-0.778 1.431,-0.778 0.162,0 0.126,0.115 -0.271,-1.249 -0.107,-0.344 -0.222,-1.96 -0.14,-1.983 0.08,-0.024 1.397,-0.322 1.766,-0.322 h 0.055 c 5.375,-0.364 8.951,-0.252 9.134,-0.331 0.321,-0.139 0.493,0.056 0.438,0.288 0,-0.013 0.019,0.318 0.238,0.699 0.516,0.974 1.284,2.037 1.867,3.07 C 0.46,0.093 0.205,0.126 0,0"
             style="fill:#f28b52;fill-opacity:1;fill-rule:nonzero;stroke:none"
             id="path56" /></g><g
           id="g58"
           transform="translate(850.1484,173.9785)"><path
             d="m 0,0 2.854,-0.344 7.24,-2.968 1.847,0.299 C 8.984,-0.801 4.299,1.444 -2.47,1.397 l 0.718,-1.602 z"
             style="fill:#f28b52;fill-opacity:1;fill-rule:nonzero;stroke:none"
             id="path60" /></g><g
           id="g62"
           transform="translate(889.5928,165.2578)"><path
             d="M 0,0 -3.424,1.742 1.947,1.984 1.673,6.11 c 0,0 -4.872,0.503 -5.385,0.536 L -3.6,1.835 -8.342,4.229 c 0,0 7.644,3.964 7.759,4.219 L 5.72,4.663 Z m -14.484,11.677 c 0.377,-0.937 2.175,-3.368 1.821,-4.057 -2.702,-5.156 -5.971,-10.908 -8.444,-13.236 -0.345,-0.421 -0.298,-1.431 0.181,-1.659 0.471,-0.186 2.143,-0.689 3.05,-0.908 0.778,-0.295 1.305,-0.493 1.464,-0.834 0.266,-0.424 -0.457,-1.434 -0.96,-1.904 l 0.136,-0.881 c 0.642,-0.378 1.721,-0.732 4.252,-2.133 0.288,-0.205 -0.034,-0.699 -0.205,-0.894 -0.16,-0.215 -1.342,-1.695 -1.822,-1.98 -0.288,-0.172 -0.093,-1.001 0,-1.113 1.327,-0.172 1.765,-2.12 1.877,-4.136 12.403,3.722 23.437,9.352 30.324,17.819 v 15.916 z"
             style="fill:#f28b52;fill-opacity:1;fill-rule:nonzero;stroke:none"
             id="path64" /></g><g
           id="g66"
           transform="translate(851.0996,168.5815)"><path
             d="m 0,0 0.917,-3.325 c -0.95,0.345 -1.96,0.921 -3.003,1.822 0,0 0.675,0.897 2.086,1.503 M 5.235,0.103 C 6.143,-0.162 7.14,-0.596 8.216,-1.239 8.183,-1.639 6.004,-3.895 2.831,-3.726 l 3.061,1.342 z m -5.566,-22.678 -0.069,0.447 c -0.918,1.384 -2.597,4.653 -3.812,6.782 -0.285,0.414 -0.216,0.149 -0.183,0.838 0.047,0.689 0.047,2.957 0.047,3.815 0,0.874 -0.047,2.798 -0.08,3.805 -0.093,2.328 1.007,1.732 1.007,1.732 0.898,-0.643 5.577,-1.331 6.09,-1.388 0.609,-0.069 0.447,0.046 0.792,0.139 0.334,0.067 5.537,1.659 7.68,5.524 C 7.68,1.742 1.606,2.739 1.285,2.854 L 0,2.417 C -0.493,2.179 -3.202,1.146 -3.384,0.974 L -4.05,0.699 -5.424,0.126 -5.527,0.354 c 0,0 0.02,1.858 0.252,3.507 0.066,0.504 0.344,2.911 0.275,3.279 -0.047,0.261 -0.07,0.722 0.022,0.964 l 0.057,0.251 h -7.471 c 0.239,-1.686 -0.218,-3.679 -0.195,-5.034 0.033,-1.579 0.274,-1.658 0.274,-2.934 0,-1.268 -0.022,-20.074 -0.022,-22.035 0,-2.129 -0.48,-7.55 -0.689,-10.06 4.458,0.285 9.11,0.708 13.816,1.318 -0.438,3.013 -1.249,7.792 -1.123,7.815"
             style="fill:#f28b52;fill-opacity:1;fill-rule:nonzero;stroke:none"
             id="path68" /></g><g
           id="g70"
           transform="translate(817.8389,163.1967)"><path
             d="M 0,0 C -2.212,1.5 -7.974,5.533 -7.974,5.533 L -2.119,7.447 -2.464,2.245 3.573,1.911 3.735,7.345 -0.676,7.928 2.637,9.017 8.067,5.156 C 8.067,5.156 3.116,0.801 0,0 m 17.866,-9.09 c -0.847,2.099 -3.576,11.921 -4.457,13.845 -0.699,1.557 0.089,3.759 1.109,6.772 l 0.056,0.14 c 0.378,0.675 0.242,1.039 0.554,1.579 l 0.238,0.493 h -31.867 v -40.03 c 0,0 10.494,-0.88 25.085,-0.549 0.344,0.712 0.41,0.721 0.686,1.615 0.278,0.862 -1.388,1.663 -2.246,2.17 -0.318,0.201 -0.195,0.973 0.046,1.199 2.385,2.215 4.057,3.669 4.849,3.91 0.022,0.262 0.205,0.745 -0.093,0.904 l -0.149,0.07 c -0.331,0.136 -0.457,0.159 -0.712,0.388 l -0.02,0.115 c -0.182,0.769 -0.013,1.136 -0.013,2.497 0.102,0.699 0.228,0.861 0.493,1.034 l 0.262,0.215 c 1.871,1.228 1.96,1.251 5.355,1.801 0.777,0.215 1.165,0.812 0.927,1.672 z"
             style="fill:#f28b52;fill-opacity:1;fill-rule:nonzero;stroke:none"
             id="path72" /></g></g></g><g
       id="g74"><g
         id="g76"><g
           id="g82"><g
             id="g84"><path
               d="m 479.849,124.222 c 0,-21.888 17.744,-39.631 39.629,-39.631 v 0 c 21.887,0 39.632,17.743 39.632,39.631 v 0 c 0,21.886 -17.745,39.629 -39.632,39.629 v 0 c -21.885,0 -39.629,-17.743 -39.629,-39.629"
               style="fill:url(#radialGradient96);stroke:none"
               id="path98" /></g></g></g></g><g
       id="g100"><g
         id="g102"
         clip-path="url(#clipPath106)"><g
           id="g108"
           transform="translate(496.9346,109.081)"><path
             d="m 0,0 10.186,28.582 c 0,0 0.869,2.867 3.127,2.867 2.259,0 3.106,-2.867 3.106,-2.867 l 6.103,-17.114 6.06,17.114 c 0,0 0.803,2.867 3.148,2.867 2.346,0 3.107,-2.867 3.107,-2.867 L 44.914,0 H 38.919 L 31.73,20.329 25.28,2.259 c 0,0 -0.684,-2.606 -2.672,-2.606 -2.28,0 -2.887,2.606 -2.887,2.606 L 13.313,20.416 6.081,0 Z"
             style="fill:#ffffff;fill-opacity:1;fill-rule:nonzero;stroke:none"
             id="path110" /></g></g></g><g
       id="g112"><g
         id="g114"><g
           id="g120"><g
             id="g122"><path
               d="m 574.798,124.222 c 0,-21.888 17.742,-39.631 39.629,-39.631 v 0 c 21.887,0 39.631,17.743 39.631,39.631 v 0 c 0,21.886 -17.744,39.629 -39.631,39.629 v 0 c -21.887,0 -39.629,-17.743 -39.629,-39.629"
               style="fill:url(#radialGradient134);stroke:none"
               id="path136" /></g></g></g></g><g
       id="g138"><g
         id="g140"
         clip-path="url(#clipPath144)"><g
           id="g146"
           transform="translate(591.9062,109.081)"><path
             d="m 0,0 10.186,28.582 c 0,0 0.869,2.867 3.127,2.867 2.258,0 3.105,-2.867 3.105,-2.867 l 6.103,-17.114 6.06,17.114 c 0,0 0.804,2.867 3.149,2.867 2.345,0 3.106,-2.867 3.106,-2.867 L 44.914,0 H 38.919 L 31.73,20.329 25.279,2.259 c 0,0 -0.683,-2.606 -2.671,-2.606 -2.281,0 -2.888,2.606 -2.888,2.606 L 13.313,20.416 6.081,0 Z"
             style="fill:#ffffff;fill-opacity:1;fill-rule:nonzero;stroke:none"
             id="path148" /></g></g></g><g
       id="g150"><g
         id="g152"><g
           id="g158"><g
             id="g160"><path
               d="m 669.747,124.222 c 0,-21.888 17.742,-39.631 39.629,-39.631 v 0 c 21.887,0 39.63,17.743 39.63,39.631 v 0 c 0,21.886 -17.743,39.629 -39.63,39.629 v 0 c -21.887,0 -39.629,-17.743 -39.629,-39.629"
               style="fill:url(#radialGradient172);stroke:none"
               id="path174" /></g></g></g></g><g
       id="g176"><g
         id="g178"
         clip-path="url(#clipPath182)"><g
           id="g184"
           transform="translate(709.3877,119.6211)"><path
             d="M 0,0 C -1.846,0 -3.64,0.214 -5.375,0.583 L -0.012,12.624 5.477,0.593 C 3.711,0.212 1.88,0 0,0 m 17.764,-11.447 -4.42,9.599 c 1.253,0.605 2.462,1.284 3.613,2.046 L 14.564,4.486 C 13.528,3.778 12.434,3.144 11.294,2.59 L 2.958,20.648 c -0.551,1.156 -1.319,2.276 -2.971,2.276 h -0.066 c -1.65,0 -2.419,-1.12 -2.97,-2.276 -0.347,-0.727 -14.435,-32.095 -14.435,-32.095 h 6.737 l 3.337,7.461 c 2.374,-0.591 4.853,-0.91 7.41,-0.91 2.606,0 5.129,0.342 7.545,0.952 l 3.412,-7.503 z"
             style="fill:#ffffff;fill-opacity:1;fill-rule:nonzero;stroke:none"
             id="path186" /></g><g
           id="g188"
           transform="translate(1.6182,246.8237)"><path
             d="m 0,0 v -245.158 l 944.656,-0.048 V 0.001 Z m 946.273,1.618 v -248.441 h -0.807 l -947.084,0.046 V 1.618"
             style="fill:#5b6971;fill-opacity:1;fill-rule:nonzero;stroke:none"
             id="path190" /></g><g
           id="g192"
           transform="translate(247.2231,216.4516)"><path
             d="M 0,0 V -184.461"
             style="fill:none;stroke:#5b6971;stroke-width:1.618;stroke-linecap:butt;stroke-linejoin:miter;stroke-miterlimit:10;stroke-dasharray:none;stroke-opacity:1"
             id="path194" /></g><g
           id="g196"
           transform="translate(49.0918,92.9687)"><path
             d="m 0,0 13.77,-33.707 c 2.319,-5.452 4.204,-10.409 5.653,-15.366 h 0.434 c 1.595,4.957 3.624,9.914 5.943,15.366 L 39.425,0 H 52.761 L 25.221,-59.978 H 13.045 L -13.625,0 Z"
             style="fill:#8f7332;fill-opacity:1;fill-rule:nonzero;stroke:none"
             id="path198" /></g><g
           id="g200"
           transform="translate(129.1548,146.7104)"><path
             d="m 0,0 c 0,-18.79 13.413,-32.971 32.322,-32.971 18.47,0 32.322,14.003 32.322,33.325 0,14.536 -9.015,32.971 -31.882,32.971 C 9.895,33.325 0,16.308 0,0 m 83.411,0.886 c 0,-31.73 -26.73,-45.557 -51.951,-45.557 -28.239,0 -50.011,17.017 -50.011,44.139 0,28.717 22.85,45.556 51.735,45.556 29.964,0 50.227,-17.903 50.227,-44.138"
             style="fill:#5b6971;fill-opacity:1;fill-rule:nonzero;stroke:none"
             id="path202" /></g><g
           id="g204"
           transform="translate(112.9434,118.4839)"><path
             d="m 0,0 c -5.252,-1.853 -12.116,-3.858 -22.172,-3.858 -20.695,0 -36.215,12.231 -36.215,32.085 0,17.903 12.933,32.439 36.862,32.439 10.006,0 16.982,-1.825 21.525,-3.869 v 13.451 c -5.493,1.539 -13.147,2.826 -21.525,2.826 -34.06,0 -56.048,-19.144 -56.048,-45.557 0,-26.235 20.479,-43.784 51.951,-43.784 10.792,0 19.789,1.683 25.622,3.427 z"
             style="fill:#5b6971;fill-opacity:1;fill-rule:nonzero;stroke:none"
             id="path206" /></g><g
           id="g208"
           transform="translate(199.0171,53.1899)"><path
             d="m 0,0 c 0,-1.116 -0.29,-2.354 -0.725,-3.47 -2.029,-5.081 -7.827,-10.038 -16.958,-10.038 -6.523,0 -12.031,3.346 -12.031,10.41 0,11.648 15.799,13.755 29.714,13.507 z m 12.32,-5.824 v 22.429 c 0,12.021 -5.217,24.537 -26.67,24.537 -7.535,0 -14.748,-1.534 -20.306,-3.98 V 29.02 l 0.158,-0.394 c 4.929,2.726 11.742,4.461 18.264,4.461 14.35,0 15.944,-8.922 15.944,-13.879 v -1.239 c -27.105,0.123 -42.179,-7.807 -42.179,-22.306 0,-8.675 7.247,-17.225 21.452,-17.225 10.001,0 17.538,4.212 21.452,8.921 H 0.87 l 1.014,-7.558 H 13.48 c -0.87,4.089 -1.16,9.17 -1.16,14.375"
             style="fill:#8f7332;fill-opacity:1;fill-rule:nonzero;stroke:none"
             id="path210" /></g><g
           id="g212"
           transform="translate(145.0249,68.8037)"><path
             d="m 0,0 h -37.175 c 0.996,7.358 6.428,17.178 18.718,17.696 0.336,0.014 0.675,0.025 1.022,0.025 C 1.021,17.721 0,0 0,0 m -17.637,25.528 c -0.666,0 -1.322,-0.019 -1.971,-0.05 -18.699,-0.913 -30.021,-15.547 -30.021,-33.033 0,-17.056 11.15,-28.082 30.021,-29.374 1.147,-0.079 2.318,-0.123 3.521,-0.123 9.295,0 16.1,1.454 20.609,2.962 v 8.444 l -0.032,0.118 c -4.651,-1.734 -10.007,-3.097 -18.886,-3.097 -1.781,0 -3.526,0.129 -5.212,0.387 -10.05,1.54 -17.941,8.055 -18.183,20.683 h 49.129 c 0,0.002 0.001,0.005 0.001,0.007 l 0.294,0.002 c 0,0 4.007,33.074 -29.27,33.074"
             style="fill:#8f7332;fill-opacity:1;fill-rule:nonzero;stroke:none"
             id="path214" /></g><g
           id="g216"
           transform="translate(164.3955,158.6557)"><path
             d="m 0,0 c -0.159,-0.256 -6.987,-11.896 -13.042,-18.67 -3.049,-3.422 -6.089,-6.479 -8.145,-8.482 h 10.172 C 4.388,-15.873 12.778,-4.475 15.727,0 Z"
             style="fill:#8f7332;fill-opacity:1;fill-rule:nonzero;stroke:none"
             id="path218" /></g><g
           id="g220"
           transform="translate(57.8076,200.6352)"><path
             d="m 0,0 c -1.761,-0.959 -3.723,-1.438 -5.885,-1.438 -2.5,0 -4.524,0.778 -6.073,2.334 -1.549,1.557 -2.324,3.617 -2.324,6.18 0,2.618 0.847,4.767 2.542,6.445 1.694,1.679 3.846,2.518 6.457,2.518 1.879,0 3.459,-0.275 4.741,-0.826 v -2.889 c -1.298,0.865 -2.843,1.298 -4.635,1.298 -1.801,0 -3.277,-0.594 -4.428,-1.781 -1.152,-1.188 -1.728,-2.725 -1.728,-4.612 0,-1.942 0.495,-3.469 1.485,-4.581 0.991,-1.113 2.336,-1.669 4.034,-1.669 1.164,0 2.17,0.224 3.019,0.672 v 4.021 h -3.561 v 2.36 H 0 Z"
             style="fill:#8f7332;fill-opacity:1;fill-rule:nonzero;stroke:none"
             id="path222" /></g><g
           id="g224"
           transform="translate(78.1108,214.1152)"><path
             d="m 0,0 v -5.496 h 2.335 c 0.433,0 0.832,0.067 1.197,0.201 0.366,0.133 0.682,0.326 0.949,0.578 0.268,0.251 0.477,0.558 0.626,0.92 0.149,0.361 0.224,0.766 0.224,1.214 0,0.81 -0.256,1.443 -0.767,1.899 C 4.053,-0.228 3.318,0 2.359,0 Z M 10.272,-14.636 H 6.994 l -2.701,4.529 C 4.049,-9.69 3.812,-9.334 3.58,-9.04 3.348,-8.745 3.112,-8.503 2.872,-8.314 2.632,-8.125 2.371,-7.988 2.087,-7.901 1.805,-7.815 1.486,-7.772 1.132,-7.772 H 0 v -6.864 H -2.795 V 2.276 H 2.771 C 3.565,2.276 4.296,2.182 4.965,1.993 5.633,1.804 6.215,1.52 6.71,1.138 7.206,0.757 7.593,0.281 7.872,-0.289 8.151,-0.859 8.291,-1.525 8.291,-2.288 8.291,-2.886 8.203,-3.434 8.025,-3.933 7.849,-4.433 7.597,-4.876 7.271,-5.266 6.944,-5.655 6.551,-5.987 6.091,-6.262 5.631,-6.538 5.115,-6.75 4.541,-6.899 V -6.946 C 4.847,-7.12 5.115,-7.31 5.343,-7.518 5.571,-7.727 5.787,-7.941 5.991,-8.161 6.196,-8.381 6.398,-8.631 6.598,-8.91 6.799,-9.189 7.021,-9.513 7.265,-9.883 Z"
             style="fill:#8f7332;fill-opacity:1;fill-rule:nonzero;stroke:none"
             id="path226" /></g><g
           id="g228"
           transform="translate(111.0801,214.2094)"><path
             d="m 0,0 c -1.549,0 -2.809,-0.578 -3.78,-1.733 -0.971,-1.156 -1.456,-2.678 -1.456,-4.565 0,-1.879 0.471,-3.392 1.415,-4.54 0.943,-1.148 2.177,-1.722 3.703,-1.722 1.619,0 2.897,0.546 3.832,1.64 0.936,1.092 1.404,2.622 1.404,4.587 0,2.021 -0.454,3.581 -1.362,4.682 C 2.848,-0.55 1.596,0 0,0 m -0.13,-15.013 c -2.437,0 -4.389,0.79 -5.855,2.37 -1.467,1.581 -2.2,3.637 -2.2,6.169 0,2.72 0.747,4.89 2.241,6.51 1.494,1.619 3.522,2.429 6.085,2.429 2.375,0 4.287,-0.786 5.738,-2.359 1.45,-1.572 2.176,-3.628 2.176,-6.168 0,-2.759 -0.743,-4.941 -2.229,-6.545 -1.486,-1.604 -3.472,-2.406 -5.956,-2.406"
             style="fill:#8f7332;fill-opacity:1;fill-rule:nonzero;stroke:none"
             id="path230" /></g><g
           id="g232"
           transform="translate(149.1079,206.3198)"><path
             d="m 0,0 c 0,-4.749 -2.248,-7.123 -6.746,-7.123 -4.308,0 -6.462,2.284 -6.462,6.852 v 10.342 h 2.807 V 0.307 c 0,-3.319 1.289,-4.977 3.868,-4.977 2.484,0 3.726,1.6 3.726,4.8 v 9.941 H 0 Z"
             style="fill:#8f7332;fill-opacity:1;fill-rule:nonzero;stroke:none"
             id="path234" /></g><g
           id="g236"
           transform="translate(169.7407,214.0796)"><path
             d="m 0,0 v -6.179 h 1.816 c 1.203,0 2.119,0.279 2.748,0.837 0.629,0.558 0.944,1.344 0.944,2.359 C 5.508,-0.995 4.352,0 2.041,0 Z M 0,-8.468 V -14.6 H -2.795 V 2.312 h 5.13 c 1.942,0 3.448,-0.453 4.517,-1.356 1.069,-0.905 1.604,-2.178 1.604,-3.822 0,-1.643 -0.559,-2.988 -1.675,-4.033 C 5.665,-7.944 4.155,-8.468 2.252,-8.468 Z"
             style="fill:#8f7332;fill-opacity:1;fill-rule:nonzero;stroke:none"
             id="path238" /></g><g
           id="g240"
           transform="translate(204.4199,199.4795)"><path
             d="m 0,0 h -9.494 v 16.912 h 9.117 V 14.53 h -6.31 V 9.741 h 5.814 v -2.37 h -5.814 v -5 l 6.687,0 z"
             style="fill:#8f7332;fill-opacity:1;fill-rule:nonzero;stroke:none"
             id="path242" /></g></g></g></g></svg>
